SplineFontDB: 3.0
FontName: Jones*-Book
FullName: Jones* Book
FamilyName: Jones*
Weight: Book
Copyright: This is a modified version of "Montserrat", a font by Julieta Ulanovsky. Copyright 2015 Indestructible Type
UComments: "Thank you for using Jones* Book by indestructible type. This is an Open Source font. Your participation in the pirfection of this font is encouraged. If you enconter ways inwhich this typeface can be inproved please see our site where this font was downloaded from to help implement those improvements."
FontLog: "This is iteration 1.+AAoA-Changes made from the origonal typeface Jones* Medeiam are as follows:+AAoA   Removed 15em weight"
Version: 002.000
ItalicAngle: 0
UnderlinePosition: -100
UnderlineWidth: 50
Ascent: 800
Descent: 200
InvalidEm: 0
sfntRevision: 0x00010000
LayerCount: 2
Layer: 0 0 "Back" 1
Layer: 1 0 "Fore" 0
XUID: [1021 266 -223186452 1815490]
StyleMap: 0x0000
FSType: 8
OS2Version: 3
OS2_WeightWidthSlopeOnly: 0
OS2_UseTypoMetrics: 0
CreationTime: 1401186238
ModificationTime: 1440519801
PfmFamily: 81
TTFWeight: 300
TTFWidth: 5
LineGap: 0
VLineGap: 0
Panose: 0 0 5 0 0 0 0 0 0 0
OS2TypoAscent: 968
OS2TypoAOffset: 0
OS2TypoDescent: -251
OS2TypoDOffset: 0
OS2TypoLinegap: 0
OS2WinAscent: 1006
OS2WinAOffset: 0
OS2WinDescent: 194
OS2WinDOffset: 0
HheadAscent: 1006
HheadAOffset: 0
HheadDescent: -194
HheadDOffset: 0
OS2SubXSize: 650
OS2SubYSize: 600
OS2SubXOff: 0
OS2SubYOff: 75
OS2SupXSize: 650
OS2SupYSize: 600
OS2SupXOff: 0
OS2SupYOff: 350
OS2StrikeYSize: 50
OS2StrikeYPos: 319
OS2CapHeight: 700
OS2XHeight: 532
OS2Vendor: 'UKWN'
OS2CodePages: 20000093.00000000
OS2UnicodeRanges: 00000007.00000000.00000000.00000000
Lookup: 1 0 0 "'aalt' Access All Alternates lookup 0" { "'aalt' Access All Alternates lookup 0 subtable"  } ['aalt' ('DFLT' <'dflt' > 'grek' <'dflt' > 'latn' <'CAT ' 'MOL ' 'ROM ' 'dflt' > ) ]

StartChar: .notdef
Encoding: 65536 -1 0
Width: 500
Flags: HW
LayerCount: 2
Fore
SplineSet
0 0 m 1
 0 700 l 1
 500 700 l 1
 500 0 l 1
 0 0 l 1
250 395 m 1
 420 650 l 1
 80 650 l 1
 250 395 l 1
280 350 m 1
 450 95 l 1
 450 605 l 1
 280 350 l 1
80 50 m 1
 420 50 l 1
 250 305 l 1
 80 50 l 1
50 605 m 1
 50 95 l 1
 220 350 l 1
 50 605 l 1
EndSplineSet
EndChar

StartChar: A
Encoding: 65 65 1
Width: 830
GlyphClass: 2
Flags: HW
HStem: 0 21G<52.7998 148.255 557.25 655.714> 182 74<231.266 473.924> 680 20G<313.496 396.832>
LayerCount: 2
Fore
SplineSet
221 182 m 5xc8
 221 253 l 5
 598 253 l 5
 598 182 l 5
 221 182 l 5xc8
412 609 m 5
 149 0 l 5
 66 0 l 5
 375 700 l 5
 456 700 l 5xd8
 762 0 l 5
 676 0 l 5
 412 609 l 5
EndSplineSet
Substitution2: "Single Substitution lookup 14 subtable" ordfeminine
Substitution2: "'aalt' Access All Alternates lookup 0 subtable" ordfeminine
Position2: "'cpsp' Capital Spacing lookup 0 subtable" dx=5 dy=0 dh=10 dv=0
EndChar

StartChar: AE
Encoding: 198 198 11
Width: 1052
GlyphClass: 2
Flags: HW
AnchorPoint: "Anchor-0" 727 0 basechar 0
LayerCount: 2
Fore
SplineSet
188.033386328 182 m 1xec
 83 0 l 1
 0 0 l 1
 409 700 l 1
 989 700 l 1
 989 629 l 1
 567 629 l 1
 567 388 l 1
 949 388 l 1
 949 312 l 1
 567 312 l 1
 567 75 l 1
 1001 75 l 1
 1001 0 l 1
 489 0 l 1
 489 182 l 1
 188.033386328 182 l 1xec
229.007949126 253 m 1
 489 253 l 1
 489 629 l 1
 446 629 l 1
 229.007949126 253 l 1
EndSplineSet
Position2: "'cpsp' Capital Spacing lookup 0 subtable" dx=5 dy=0 dh=10 dv=0
EndChar

StartChar: B
Encoding: 66 66 12
Width: 698
GlyphClass: 2
Flags: HW
LayerCount: 2
Fore
SplineSet
73 700 m 1xf4
 377 700 l 2
 522 700 612 634 612 525 c 0xf8
 612 446 565 382 489 364 c 1
 583 348 639 286 639 192 c 0
 639 72 542 0 384 0 c 2
 73 0 l 1
 73 700 l 1xf4
151 625 m 5
 151 395 l 5
 381 395 l 2
 476 395 531 445 531 514 c 0
 531 583 466 625 371 625 c 2
 151 625 l 5
151 316 m 5
 151 75 l 5
 381 75 l 2
 483 75 553 111 553 197 c 0xf4
 553 279 483 316 381 316 c 2
 151 316 l 5
EndSplineSet
Position2: "'cpsp' Capital Spacing lookup 0 subtable" dx=5 dy=0 dh=10 dv=0
EndChar

StartChar: C
Encoding: 67 67 13
Width: 743
GlyphClass: 2
Flags: HW
HStem: -5 81<273.295 442.716> 622 81<274.497 448.859>
VStem: 48 87<236.568 465.28>
AnchorPoint: "Anchor-0" 404 0 basechar 0
LayerCount: 2
Fore
SplineSet
423 703 m 0
 522 703 621 662 689 595 c 1
 634 534 l 1
 583 589 506 626 425 626 c 0
 267 626 142 508 142 352 c 0
 142 196 267 72 425 72 c 0
 505 72 584 117 637 168 c 1
 690 110 l 1
 619 40 518 -5 419 -5 c 0
 214 -5 60 150 60 351 c 0
 60 550 216 703 423 703 c 0
EndSplineSet
Position2: "'cpsp' Capital Spacing lookup 0 subtable" dx=5 dy=0 dh=10 dv=0
EndChar

StartChar: D
Encoding: 68 68 17
Width: 784
GlyphClass: 2
Flags: HW
HStem: 0 78<146.4 399.554> 618 82<146.4 401.433>
VStem: 58 88<78.5 618.5> 536 84<232.8 465.671>
LayerCount: 2
Fore
SplineSet
73 700 m 5
 360 700 l 6
 570 700 722 553 722 350 c 4
 722 148 569 0 357 0 c 6
 73 0 l 5
 73 700 l 5
156 621 m 5
 156 76 l 5
 363 76 l 6
 519 76 643 197 643 349 c 4
 643 512 516 621 358 621 c 6
 156 621 l 5
EndSplineSet
Position2: "'cpsp' Capital Spacing lookup 0 subtable" dx=5 dy=0 dh=10 dv=0
EndChar

StartChar: Eth
Encoding: 208 208 18
Width: 784
GlyphClass: 2
Flags: HW
LayerCount: 2
Fore
SplineSet
0 386 m 1
 428 386 l 1
 428 317 l 1
 0 317 l 1
 0 386 l 1
EndSplineSet
Refer: 17 68 N 1 0 0 1 41 0 3
Position2: "'cpsp' Capital Spacing lookup 0 subtable" dx=5 dy=0 dh=10 dv=0
EndChar

StartChar: Dcroat
Encoding: 272 272 20
Width: 784
GlyphClass: 2
Flags: HW
LayerCount: 2
Fore
SplineSet
176 621 m 5
 176 76 l 5
 383 76 l 6
 539 76 663 197 663 349 c 4
 663 512 536 621 378 621 c 6
 176 621 l 5
493 819 m 1
 238 819 l 1
 238 892 l 1
 493 892 l 1
 493 819 l 1
92 700 m 5xf4
 379 700 l 6
 589 700 741 553 741 350 c 4
 741 148 588 0 376 0 c 6
 92 0 l 5
 92 700 l 5xf4
EndSplineSet
Position2: "'cpsp' Capital Spacing lookup 0 subtable" dx=5 dy=0 dh=10 dv=0
EndChar

StartChar: E
Encoding: 69 69 21
Width: 646
GlyphClass: 2
Flags: HW
HStem: 0 79<141.4 516.6> 310 80<141.4 464.6> 625 75<141.4 504.6>
VStem: 58 83<79.4326 309.787 390.213 624.539>
AnchorPoint: "Anchor-0" 312 0 basechar 0
LayerCount: 2
Fore
SplineSet
573 629 m 5
 151 629 l 5
 151 388 l 5
 533 388 l 5
 533 312 l 5
 151 312 l 5
 151 75 l 5
 585 75 l 5
 585 0 l 5
 73 0 l 5
 73 700 l 5
 573 700 l 5
 573 629 l 5
EndSplineSet
Position2: "'cpsp' Capital Spacing lookup 0 subtable" dx=5 dy=0 dh=10 dv=0
EndChar

StartChar: F
Encoding: 70 70 30
Width: 597
GlyphClass: 2
Flags: HW
LayerCount: 2
Fore
SplineSet
542 624 m 1
 151 624 l 1
 151 377 l 1
 509 377 l 1
 509 302 l 5
 151 302 l 5
 151 0 l 1
 73 0 l 1
 73 700 l 1
 543 700 l 1
 542 624 l 1
EndSplineSet
Position2: "'cpsp' Capital Spacing lookup 0 subtable" dx=5 dy=0 dh=10 dv=0
EndChar

StartChar: G
Encoding: 71 71 31
Width: 765
GlyphClass: 2
Flags: HW
HStem: -5 82<274.11 450.11> 298 83<359.83 520.6> 535 21G<548.401 565.036> 625 78<271.463 449.49>
VStem: 48 83<234.103 463.624> 521 75<125.833 297.861>
AnchorPoint: "Anchor-0" 408 0 basechar 0
LayerCount: 2
Fore
SplineSet
695 344 m 1x98
 695 102 l 1
 625 102 l 1
 625 344 l 1
 695 344 l 1x98
695 379 m 1
 695 300 l 1
 426 300 l 1
 426 379 l 1
 695 379 l 1
695 175 m 1
 695 86 l 1
 624 32 519 -5 423 -5 c 0
 216 -5 60 150 60 350 c 0
 60 550 218 703 430 703 c 0xb8
 530 703 630 665 699 605 c 1xd8
 652 540 l 1
 598 590 500 629 427 629 c 0
 264 629 138 502 138 350 c 0
 138 187 265 73 431 73 c 0
 528.0234375 73 622.721679688 135.703125 695 175 c 1
EndSplineSet
Position2: "'cpsp' Capital Spacing lookup 0 subtable" dx=5 dy=0 dh=10 dv=0
EndChar

StartChar: H
Encoding: 72 72 34
Width: 756
GlyphClass: 2
Flags: HW
HStem: 0 21G<58.4004 151.4 496.2 589.2> 300 81<151.4 496.2> 680 20G<58.4004 151.4 496.2 589.2>
VStem: 58 93<0 300 381 700> 496 93<0 300 381 700>
LayerCount: 2
Fore
SplineSet
680 0 m 1
 592 0 l 1
 592 300 l 1
 161 300 l 1
 161 0 l 1
 73 0 l 1
 73 700 l 1
 161 700 l 1
 161 381 l 1
 592 381 l 1
 592 700 l 1
 680 700 l 1
 680 0 l 1
EndSplineSet
Position2: "'cpsp' Capital Spacing lookup 0 subtable" dx=5 dy=0 dh=10 dv=0
EndChar

StartChar: I
Encoding: 73 73 35
Width: 267
GlyphClass: 2
Flags: HW
HStem: 0 21G<72.7998 159.8> 680 20G<72.7998 159.8>
VStem: 73 87<0 700>
LayerCount: 2
Fore
SplineSet
173 0 m 5
 91 0 l 5
 91 700 l 5
 173 700 l 5
 173 0 l 5
EndSplineSet
Position2: "'cpsp' Capital Spacing lookup 0 subtable" dx=5 dy=0 dh=10 dv=0
EndChar

StartChar: IJ
Encoding: 306 306 36
Width: 801
GlyphClass: 2
Flags: HW
LayerCount: 2
Fore
SplineSet
724 700 m 1xb8
 724 216 l 2
 724 75 641 -5 506 -5 c 0
 422 -5 352 32 300 96 c 1
 361 151 l 1
 407 98 450 71 508 71 c 0
 591 71 645 128 645 210 c 2
 645 700 l 1
 724 700 l 1xb8
192 0 m 1x78
 110 0 l 1
 110 700 l 1
 192 700 l 1
 192 0 l 1x78
EndSplineSet
Position2: "'cpsp' Capital Spacing lookup 0 subtable" dx=5 dy=0 dh=10 dv=0
EndChar

StartChar: J
Encoding: 74 74 45
Width: 546
GlyphClass: 2
Flags: HW
HStem: -5 80<167.604 297.243> 680 20G<343.95 427.95>
VStem: 344 84<127.854 700>
LayerCount: 2
Fore
SplineSet
473 700 m 5
 473 216 l 6
 473 75 390 -5 255 -5 c 4
 171 -5 101 32 49 96 c 5
 110 151 l 5
 156 98 199 71 257 71 c 4
 340 71 394 128 394 210 c 6
 394 700 l 5
 473 700 l 5
EndSplineSet
Position2: "'cpsp' Capital Spacing lookup 0 subtable" dx=5 dy=0 dh=10 dv=0
EndChar

StartChar: K
Encoding: 75 75 47
Width: 729
GlyphClass: 2
Flags: HW
HStem: 0 21G<58.4004 141.4 475.474 594.348> 680 20G<58.4004 141.4 453.218 580.152>
VStem: 58 83<0 139.653 261.585 700>
AnchorPoint: "Anchor-0" 334 0 basechar 0
LayerCount: 2
Fore
SplineSet
683 0 m 1
 582 0 l 5
 307.245117188 380 l 5
 297.245117188 380 l 1
 388 408 l 1
 683 0 l 1
73 700 m 1
 151 700 l 1
 151 0 l 1
 73 0 l 1
 73 700 l 1
668 700 m 1
 138 124 l 1
 99.7705078125 202 l 1
 99.7708333333 202 l 1
 558 700 l 1
 668 700 l 1
EndSplineSet
Position2: "'cpsp' Capital Spacing lookup 0 subtable" dx=5 dy=0 dh=10 dv=0
EndChar

StartChar: L
Encoding: 76 76 49
Width: 554
GlyphClass: 2
Flags: HW
HStem: 0 76<146.4 444.8> 680 20G<58.4004 146.4>
VStem: 58 88<76.4541 700>
AnchorPoint: "Anchor-0" 271 0 basechar 0
LayerCount: 2
Fore
SplineSet
156 72 m 5
 494 72 l 5
 494 0 l 5
 73 0 l 5
 73 700 l 5
 156 700 l 5
 156 72 l 5
EndSplineSet
Position2: "'cpsp' Capital Spacing lookup 0 subtable" dx=5 dy=0 dh=10 dv=0
EndChar

StartChar: Lslash
Encoding: 321 321 54
Width: 551
GlyphClass: 2
Flags: HW
AnchorPoint: "Anchor-0" 308 0 basechar 0
LayerCount: 2
Fore
SplineSet
193 72 m 5
 531 72 l 5
 531 0 l 5
 110 0 l 5
 110 700 l 5
 193 700 l 5
 193 72 l 5
26 344 m 1
 6 420 l 1
 386 532 l 1
 406 455 l 1
 26 344 l 1
EndSplineSet
Position2: "'cpsp' Capital Spacing lookup 0 subtable" dx=5 dy=0 dh=10 dv=0
EndChar

StartChar: M
Encoding: 77 77 55
Width: 889
GlyphClass: 2
Flags: HW
LayerCount: 2
Fore
SplineSet
813 0 m 1xb8
 734 0 l 1
 733 588 l 1
 482 73 l 1
 405 73 l 1
 154 588 l 1
 154 0 l 1
 73 0 l 1
 73 700 l 1
 183 700 l 1
 444 170 l 1
 704 700 l 1
 813 700 l 1
 813 0 l 1xb8
EndSplineSet
Position2: "'cpsp' Capital Spacing lookup 0 subtable" dx=5 dy=0 dh=10 dv=0
EndChar

StartChar: N
Encoding: 78 78 56
Width: 736
GlyphClass: 2
Flags: HW
HStem: 0 21G<57.5996 145.6 461.473 570> 680 20G<57.5996 166.429 484 570>
VStem: 58 88<0 576.579> 484 86<122.4 700>
AnchorPoint: "Anchor-0" 376 0 basechar 0
LayerCount: 2
Fore
SplineSet
659 0 m 1
 563 0 l 1
 155 582 l 1
 155 0 l 1
 72 0 l 1
 72 700 l 1
 168 700 l 1
 578 117 l 5
 578 700 l 5
 659 700 l 1
 659 0 l 1
EndSplineSet
Position2: "'cpsp' Capital Spacing lookup 0 subtable" dx=5 dy=0 dh=10 dv=0
EndChar

StartChar: O
Encoding: 79 79 61
Width: 859
GlyphClass: 2
Flags: HW
HStem: -5 78<276.995 448.765> 622 82<276.816 448.774>
VStem: 48 88<235.357 464.192> 593 83<235.365 463.991>
LayerCount: 2
Fore
SplineSet
426 703 m 4
 635 703 792 550 792 350 c 4
 792 150 635 -5 426 -5 c 4
 217 -5 60 150 60 350 c 4
 60 551 217 703 426 703 c 4
427 624 m 4
 274 624 143 504 143 350 c 4
 143 196 275 70 427 70 c 4
 579 70 714 196 714 350 c 4
 714 504 579 624 427 624 c 4
EndSplineSet
Substitution2: "Single Substitution lookup 14 subtable" ordmasculine
Substitution2: "'aalt' Access All Alternates lookup 0 subtable" ordmasculine
Position2: "'cpsp' Capital Spacing lookup 0 subtable" dx=5 dy=0 dh=10 dv=0
EndChar

StartChar: Oslash
Encoding: 216 216 68
Width: 859
GlyphClass: 2
Flags: HW
LayerCount: 2
Fore
SplineSet
512 811 m 1x98
 582 811 l 1
 265 -122 l 1
 195 -122 l 1
 512 811 l 1x98
EndSplineSet
Refer: 61 79 N 1 0 0 1 -21 0 3
Position2: "'cpsp' Capital Spacing lookup 0 subtable" dx=5 dy=0 dh=10 dv=0
EndChar

StartChar: OE
Encoding: 338 338 70
Width: 1097
GlyphClass: 2
Flags: HW
AnchorPoint: "Anchor-0" 772 0 basechar 0
LayerCount: 2
Fore
SplineSet
1033 629 m 1
 611 629 l 1
 611 388 l 1
 993 388 l 1
 993 312 l 1
 611 312 l 1
 611 75 l 1
 1045 75 l 1
 1045 0 l 1
 402 0 l 2
 193 0 36 150 36 350 c 0
 36 551 193 700 402 700 c 2
 1033 700 l 1
 1033 629 l 1
533 70 m 1
 533 624 l 1
 403 624 l 2
 250 624 119 504 119 350 c 0
 119 196 251 70 403 70 c 2
 533 70 l 1
EndSplineSet
Position2: "'cpsp' Capital Spacing lookup 0 subtable" dx=5 dy=0 dh=10 dv=0
EndChar

StartChar: P
Encoding: 80 80 71
Width: 669
GlyphClass: 2
Flags: HW
LayerCount: 2
Fore
SplineSet
73 700 m 1
 362 700 l 2
 518 700 609 613 609 481 c 0
 609 343 518 251 362 251 c 2
 151 251 l 1
 151 0 l 1
 73 0 l 1
 73 700 l 1
151 624 m 1
 151 332 l 1
 377 332 l 2
 468 332 524 391 524 478 c 0
 524 562 465 624 377 624 c 2
 151 624 l 1
EndSplineSet
Position2: "'cpsp' Capital Spacing lookup 0 subtable" dx=5 dy=0 dh=10 dv=0
EndChar

StartChar: Thorn
Encoding: 222 222 72
Width: 679
GlyphClass: 2
Flags: HW
LayerCount: 2
Fore
SplineSet
180 601 m 1xec
 357 601 l 2xec
 547 601 653 516 653 367 c 0
 653 211 547 122 357 122 c 2
 180 122 l 1
 180 0 l 1
 92 0 l 1
 92 700 l 1
 180 700 l 1xdc
 180 601 l 1xec
180 200 m 1
 352 200 l 6
 481 200 563 259 563 364 c 4
 563 465 481 523 352 523 c 6
 180 523 l 1
 180 200 l 1
EndSplineSet
Position2: "'cpsp' Capital Spacing lookup 0 subtable" dx=5 dy=0 dh=10 dv=0
EndChar

StartChar: Q
Encoding: 81 81 73
Width: 859
GlyphClass: 2
Flags: HW
LayerCount: 2
Fore
SplineSet
426 703 m 0
 635 703 792 550 792 350 c 0
 792 150 635 -5 426 -5 c 0
 217 -5 60 150 60 350 c 0
 60 551 217 703 426 703 c 0
427 627 m 0
 274 627 140 504 140 350 c 0
 140 196 275 70 427 70 c 0
 589 70 711 186 711 350 c 0
 711 504 579 627 427 627 c 0
411.666015625 256.075195312 m 1
 468.981445312 319.849609375 l 1
 782.65625 24.123046875 l 1
 725.342773438 -39.6533203125 l 1
 411.666015625 256.075195312 l 1
EndSplineSet
Position2: "'cpsp' Capital Spacing lookup 0 subtable" dx=5 dy=0 dh=10 dv=0
EndChar

StartChar: R
Encoding: 82 82 74
Width: 694
GlyphClass: 2
Flags: HW
HStem: 0 21G<58.4004 141.4 446.517 557.625> 281 74<141.4 302.656> 622 78<141.4 409.043>
VStem: 58 83<0 281 354.5 621.5> 461 83<401.922 570.181>
AnchorPoint: "Anchor-0" 341 0 basechar 0
LayerCount: 2
Fore
SplineSet
345 294 m 1
 440 294 l 1
 640 0 l 1
 596.666992188 0 588.333007812 0 545 0 c 1
 345 294 l 1
73 700 m 1
 382 700 l 2
 538 700 629 618 629 486 c 0
 629 348 538 281 382 281 c 2
 151 281 l 1
 151 0 l 1
 73 0 l 1
 73 700 l 1
151 624 m 1
 151 352 l 1
 382 352 l 2
 480 352 551 388 551 483 c 0
 551 560 510 624 382 624 c 2
 151 624 l 1
EndSplineSet
Position2: "'cpsp' Capital Spacing lookup 0 subtable" dx=5 dy=0 dh=10 dv=0
EndChar

StartChar: S
Encoding: 83 83 78
Width: 657
GlyphClass: 2
Flags: HW
HStem: -9 83<206.395 384.367> 622 83<216.73 394.073>
VStem: 84 83<453.135 575.856> 441 87<127.713 250.484>
AnchorPoint: "Anchor-0" 337 -5 basechar 0
LayerCount: 2
Fore
SplineSet
343 705 m 4
 434 705 523 671 588 628 c 5
 549 556 l 5
 473 602 407 626 334 626 c 4
 245 626 171 589 171 512 c 4
 171 432.00390625 272.551757812 405.125 353 385.715820312 c 4
 460.823242188 359.702148438 597 337 597 188 c 4
 597 73 487 -9 333 -9 c 4
 223 -9 119 41 47 107 c 5
 95 174 l 5
 167 111 251 70 326 70 c 4
 433 70 515 112 515 191 c 4
 515 270.358398438 407.955078125 297.96875 327 316.731445312 c 4
 222.353515625 340.985351562 93 371.91796875 93 515 c 4
 93 620 191 705 343 705 c 4
EndSplineSet
Position2: "'cpsp' Capital Spacing lookup 0 subtable" dx=5 dy=0 dh=10 dv=0
EndChar

StartChar: T
Encoding: 84 84 83
Width: 664
GlyphClass: 2
Flags: HW
HStem: 0 21G<258.933 345.667> 623 77<39.2002 255.86 344.194 561.667>
VStem: 256 88<0 622.553>
AnchorPoint: "Anchor-0" 316 0 basechar 0
LayerCount: 2
Fore
SplineSet
610 627 m 5
 370 627 l 5
 370 0 l 1
 288 0 l 1
 288 627 l 5
 49 627 l 5
 49 700 l 1
 610 700 l 1
 610 627 l 5
EndSplineSet
Position2: "'cpsp' Capital Spacing lookup 0 subtable" dx=5 dy=0 dh=10 dv=0
EndChar

StartChar: U
Encoding: 85 85 87
Width: 709
GlyphClass: 2
Flags: HW
HStem: -5 76<225.422 382.922> 680 20G<54.4004 142.4 464.8 552.8>
VStem: 54 88<167.545 700> 465 88<167.123 700>
LayerCount: 2
Fore
SplineSet
637 700 m 1
 637 290 l 2
 637 107 538 -5 353 -5 c 0
 168 -5 68 107 68 290 c 2
 68 700 l 1
 151 700 l 1
 151 290 l 2
 151 152 228 71 354 71 c 0
 479 71 554 151 554 290 c 2
 554 700 l 1
 637 700 l 1
EndSplineSet
Position2: "'cpsp' Capital Spacing lookup 0 subtable" dx=5 dy=0 dh=10 dv=0
EndChar

StartChar: V
Encoding: 86 86 96
Width: 773
GlyphClass: 2
Flags: HW
LayerCount: 2
Fore
SplineSet
434 0 m 1xb0
 332 0 l 1
 53 700 l 1
 145 700 l 1
 386 91 l 1x70
 629 700 l 5
 717 700 l 1
 434 0 l 1xb0
EndSplineSet
Position2: "'cpsp' Capital Spacing lookup 0 subtable" dx=5 dy=0 dh=10 dv=0
EndChar

StartChar: W
Encoding: 87 87 97
Width: 1133
GlyphClass: 2
Flags: HW
HStem: 0 21G<261.382 369.26 674.427 781.309> 680 20G<34.4004 133.352 492.206 562.155 916.222 1010.25>
LayerCount: 2
Fore
SplineSet
852 0 m 1xb0
 761 0 l 1
 565 571 l 5
 367 0 l 1
 275 0 l 1
 43 700 l 1
 130 700 l 1
 326 114 l 1
 529 699 l 1
 605 700 l 1
 807 117 l 1x70
 1004 700 l 1
 1086 700 l 1
 852 0 l 1xb0
EndSplineSet
Position2: "'cpsp' Capital Spacing lookup 0 subtable" dx=5 dy=0 dh=10 dv=0
EndChar

StartChar: X
Encoding: 88 88 102
Width: 745
GlyphClass: 2
Flags: HW
LayerCount: 2
Fore
SplineSet
430 364 m 1
 695 0 l 1
 592 0 l 1
 373 294 l 1
 152 0 l 1
 49 0 l 1
 314 359 l 1
 67 700 l 1
 169 700 l 1
 370 427 l 1
 572 700 l 1
 675 700 l 1
 430 364 l 1
EndSplineSet
Position2: "'cpsp' Capital Spacing lookup 0 subtable" dx=5 dy=0 dh=10 dv=0
EndChar

StartChar: Y
Encoding: 89 89 103
Width: 721
GlyphClass: 2
Flags: HW
HStem: 0 21G<284.031 370.98> 680 20G<33.5996 138.779 494.774 600.768>
VStem: 284 87<0 249.011>
LayerCount: 2
Fore
SplineSet
402 253 m 1
 402 0 l 1
 321 0 l 1
 321 249 l 1
 42 700 l 1
 131 700 l 1
 361 329 l 1
 587 700 l 1
 677 700 l 1
 402 253 l 1
EndSplineSet
Position2: "'cpsp' Capital Spacing lookup 0 subtable" dx=5 dy=0 dh=10 dv=0
EndChar

StartChar: Z
Encoding: 90 90 108
Width: 711
GlyphClass: 2
Flags: HW
HStem: 0 80<162.334 567.2> 620 80<67.4004 455.259>
LayerCount: 2
Fore
SplineSet
634 620 m 1
 168 76 l 1
 639 76 l 1
 639 0 l 1
 68 0 l 1
 68 80 l 1
 535 624 l 5
 81 624 l 5
 81 700 l 1
 634 700 l 1
 634 620 l 1
EndSplineSet
Position2: "'cpsp' Capital Spacing lookup 0 subtable" dx=5 dy=0 dh=10 dv=0
EndChar

StartChar: a
Encoding: 97 97 112
Width: 596
GlyphClass: 2
Flags: HW
HStem: -5 78<154.234 319.767> 238 69<155.964 378> 455 81<171.991 340.081>
VStem: 44 82<102.385 210.643> 378 84<0 60.7861 117.147 238.5 307.5 418.292>
LayerCount: 2
Fore
SplineSet
260 68 m 0
 342 68 447 98 447 167 c 5
 447 241 l 5
 273 241 l 2
 198 241 132 216 132 160 c 0
 132 97 186 68 260 68 c 0
448 0 m 5
 448 65 l 5
 410 18 319 -5 242 -5 c 0
 127 -5 55 66 55 160 c 0
 55 257 128 304 256 305 c 2
 447 305 l 5
 447 356 l 6
 447 433 379 460 295 460 c 0
 234 460 177 438 124 402 c 1
 86 469 l 1
 160 513 214 536 315 536 c 0
 447 536 524 466 525 349 c 2
 526 0 l 1
 448 0 l 5
EndSplineSet
Substitution2: "Single Substitution lookup 14 subtable" ordfeminine
Substitution2: "'aalt' Access All Alternates lookup 0 subtable" ordfeminine
EndChar

StartChar: ae
Encoding: 230 230 122
Width: 974
GlyphClass: 2
Flags: HW
LayerCount: 2
Fore
SplineSet
677 536 m 0xa780
 843 536 947 417 941 241 c 1
 506 241 l 1
 518 147 599 89 689 89 c 0
 747 89 800 111 839 151 c 1
 901 86 l 1
 848 29 772 -4 680 -4 c 0x6780
 575 -4 495 44 454 124 c 1
 411 38 332 -5 227 -5 c 0
 113 -5 41 61 41 155 c 0
 41 251 116 305 243 306 c 2
 430 306 l 1
 430 366 l 2
 430 433 361 463 277 463 c 0
 220 463 150 444 91 409 c 1x9b80
 72 472 l 1
 147 513 224 536 301 536 c 0
 389 536 453 507 488 456 c 1
 533 507 598 536 677 536 c 0xa780
506 303 m 1
 854 303 l 1
 851 390 765 467 678 467 c 0
 593 467 518 390 506 303 c 1
439 187 m 1
 461 168 l 1
 458 176 456 185 454 195 c 1
 431 200 l 1
 431 244 l 1
 265 244 l 2x9780
 191 244 119 216 119 165 c 0
 119 112 180 66 243 66 c 0
 314 66 406 106 439 187 c 1
EndSplineSet
EndChar

StartChar: b
Encoding: 98 98 123
Width: 685
GlyphClass: 2
Flags: HW
LayerCount: 2
Fore
SplineSet
359 536 m 4
 510 536 618 426 618 264 c 4
 618 105 513 -4 361 -4 c 4
 276 -4 202 30 163 92 c 5
 163 0 l 5
 88 0 l 5
 88 742 l 5
 163 742 l 5
 163 440 l 5
 202 502 276 536 359 536 c 4
350 69 m 4
 460 69 542 146 542 268 c 4
 542 387 460 465 350 465 c 4
 245 465 163 388 163 268 c 4
 163 145 245 69 350 69 c 4
EndSplineSet
EndChar

StartChar: c
Encoding: 99 99 124
Width: 604
GlyphClass: 2
Flags: HW
HStem: -6 81<216.36 360.994> 455 81<215.905 359.567>
VStem: 44 86<169.554 360.441>
AnchorPoint: "Anchor-0" 308 0 basechar 0
LayerCount: 2
Fore
SplineSet
550.65625 94.4169921875 m 5
 500.803710938 32.3515625 422.848632812 -6 332 -6 c 4
 177 -6 55 110 55 265 c 4
 55 420 174 536 332 536 c 4
 417.264648438 536 491.171875 502.21875 541.1484375 446.755859375 c 5
 486.126953125 389.0703125 l 5
 450 430 389.341796875 460 332 460 c 4
 223 460 136 375 136 265 c 4
 136 155 223 70 332 70 c 4
 392.451171875 70 461 105 494.6328125 145.8828125 c 5
 550.65625 94.4169921875 l 5
EndSplineSet
EndChar

StartChar: d
Encoding: 100 100 128
Width: 683
GlyphClass: 2
Flags: HW
HStem: -4 78<212.811 360.561> 460 76<213.692 360.995> 722 20G<437.8 517.8>
VStem: 54 81<161.687 370.277> 438 80<0 86.1865 161.604 372.509 445.811 742>
LayerCount: 2
Fore
SplineSet
335 69 m 4
 440 69 522 145 522 268 c 4
 522 388 440 465 335 465 c 4
 225 465 143 387 143 268 c 4
 143 146 225 69 335 69 c 4
326 536 m 4
 409 536 483 502 522 440 c 5
 522 742 l 5
 597 742 l 5
 597 0 l 5
 522 0 l 5
 522 92 l 5
 483 30 409 -4 324 -4 c 4
 172 -4 67 105 67 264 c 4
 67 426 175 536 326 536 c 4
EndSplineSet
EndChar

StartChar: eth
Encoding: 240 240 129
Width: 590
GlyphClass: 2
Flags: HW
LayerCount: 2
Fore
SplineSet
503 636 m 1
 405 604 l 1
 500 507 556 387 556 265 c 0
 556 101 448 -5 282 -5 c 0
 133 -5 36 85 36 224 c 0
 36 357 125 443 263 443 c 0
 339 443 409 411 441 362 c 1
 419 433 369 506 302 569 c 1
 150 519 l 1
 131 579 l 1
 246 617 l 1
 208 646 167 673 123 694 c 1
 199 747 l 1
 256 721 307 689 352 652 c 1
 485 696 l 1
 503 636 l 1
289 97 m 0
 377 97 434 148 434 226 c 0
 434 307 377 359 289 359 c 0
 202 359 146 309 146 231 c 0
 146 149 203 97 289 97 c 0
EndSplineSet
EndChar

StartChar: dcroat
Encoding: 273 273 131
Width: 679
GlyphClass: 2
Flags: HW
LayerCount: 2
Fore
SplineSet
378 682 m 1x36
 661 682 l 1
 661 616 l 1
 378 616 l 1
 378 682 l 1x36
316 69 m 0
 421 69 503 145 503 268 c 0
 503 388 421 465 316 465 c 0
 206 465 124 387 124 268 c 0
 124 146 206 69 316 69 c 0
307 536 m 0
 390 536 464 502 503 440 c 1
 503 742 l 1
 578 742 l 1
 578 0 l 1
 503 0 l 1x6e
 503 92 l 1
 464 30 390 -4 305 -4 c 0
 153 -4 48 105 48 264 c 0
 48 426 156 536 307 536 c 0
EndSplineSet
EndChar

StartChar: e
Encoding: 101 101 132
Width: 621
GlyphClass: 2
Flags: HW
HStem: -6 80<207.28 357.803> 228 70<131.226 411.834> 455 81<205.794 342.892>
VStem: 44 87<159.817 228.33 298.5 370.151> 412 86<298.5 379.791>
LayerCount: 2
Fore
SplineSet
566.549804688 230 m 5
 479.506835938 230 l 5
 483.1015625 244.17578125 488 284.244140625 488 300 c 4
 488 365 431 460 317 460 c 4
 208 460 134 375 134 265 c 4
 134 155 214 69 318 69 c 4
 397 69 464 107 495 144 c 5
 544.961914062 87.572265625 l 5
 494.971679688 29.5439453125 414.4609375 -6 327 -6 c 4
 152 -6 55 130 55 265 c 4
 55 400 149 536 317 536 c 4
 485 536 569 400 569 265 c 4
 569 249.588867188 567.823242188 238.564453125 566.549804688 230 c 5
565.549804688 230 m 5
 122 230 l 5
 122 296 l 5
 556 296 l 5
 565.549804688 230 l 5
EndSplineSet
EndChar

StartChar: f
Encoding: 102 102 141
Width: 466
GlyphClass: 2
Flags: HW
LayerCount: 2
Fore
SplineSet
301 670 m 0
 233 670 210 643 210 575 c 2
 210 507 l 1
 374 507 l 1
 374 436 l 1
 210 436 l 1
 210 0 l 1
 131 0 l 1
 131 436 l 1
 51 436 l 1
 51 507 l 1
 131 507 l 1
 131 584 l 2
 131 698 202 747 294 747 c 0
 337 747 390 735 424 710 c 1
 396 638 l 1
 376 658 335 670 301 670 c 0
EndSplineSet
EndChar

StartChar: g
Encoding: 103 103 142
Width: 660
GlyphClass: 2
Flags: HW
HStem: -197 80<186.623 353.658> 25 79<207.209 351.486> 455 81<210.962 354.409>
VStem: 57 83<181.568 374.679> 414 84<-50.808 108.303 173.998 389.361 451.793 532>
LayerCount: 2
Fore
SplineSet
314 104 m 4
 404 104 492 144 492 280 c 4
 492 416 414 460 324 460 c 4
 223 460 149 385.004882812 149 280 c 4
 149 181 217 104 314 104 c 4
571 532 m 5
 571 52 l 6
 571 -101 492 -197 325 -197 c 4
 242 -197 169 -171 104 -127 c 5
 143 -64 l 5
 193 -101 255 -122 320 -122 c 4
 421 -122 492 -73 492 49 c 6
 492 116 l 5
 456 58 401 26 321 26 c 4
 177 26 71 130 71 283 c 4
 71 433 175 536 317 536 c 4
 399.005859375 536 455 504 492 446 c 5
 492 532 l 5
 571 532 l 5
EndSplineSet
EndChar

StartChar: gcommaaccent
Encoding: 291 291 144
Width: 640
GlyphClass: 2
Flags: HW
LayerCount: 2
Fore
SplineSet
294 104 m 0xcf
 384 104 472 144 472 280 c 0
 472 416 394 460 304 460 c 0
 203 460 129 385.004882812 129 280 c 0
 129 181 197 104 294 104 c 0xcf
551 532 m 1xdf
 551 52 l 2
 551 -101 472 -197 305 -197 c 0
 222 -197 149 -171 84 -127 c 1
 123 -64 l 1
 173 -101 235 -122 300 -122 c 0
 401 -122 472 -73 472 49 c 2
 472 116 l 1
 436 58 381 26 301 26 c 0
 157 26 51 130 51 283 c 0
 51 433 155 536 297 536 c 0xef
 379.005859375 536 435 504 472 446 c 1
 472 532 l 1
 551 532 l 1xdf
314 581 m 0
 282 581 253 605 253 645 c 0
 253 664 260 681 271 697 c 2
 328 783 l 1
 387 783 l 1
 349 697 l 1
 367 685 376 666 376 645 c 0
 376 608 350 581 314 581 c 0
EndSplineSet
EndChar

StartChar: h
Encoding: 104 104 145
Width: 633
GlyphClass: 2
Flags: HW
HStem: 0 21G<58.4004 151.4 407.4 494.4> 453 83<216.836 360.335> 722 20G<58.4004 151.4>
VStem: 58 93<0 375.103 453.236 742> 407 87<0 406.384>
AnchorPoint: "Anchor-0" 305 0 basechar 0
LayerCount: 2
Fore
SplineSet
363 536 m 0
 487 536 563 458 563 331 c 2
 563 0 l 1
 481 0 l 1
 481 329 l 2
 481 409 423 458 333 458 c 0
 217.995117188 458 161 376 161 262 c 2
 161 0 l 1
 73 0 l 1
 73 742 l 1
 161 742 l 1
 161 448 l 1
 207 514 272 536 363 536 c 0
EndSplineSet
EndChar

StartChar: hbar
Encoding: 295 295 146
Width: 633
GlyphClass: 2
Flags: HW
AnchorPoint: "Anchor-0" 332 0 basechar 0
LayerCount: 2
Fore
SplineSet
6 599 m 5xec
 6 658 l 1
 346 658 l 1
 346 599 l 5
 6 599 l 5xec
EndSplineSet
Refer: 145 104 N 1 0 0 1 29 0 3
EndChar

StartChar: i
Encoding: 105 105 147
Width: 284
GlyphClass: 2
Flags: HW
HStem: 0 21G<75.4004 162.4> 512 20G<75.4004 162.4> 641 113<74.3986 163.402>
VStem: 62 113<652.998 742.002> 75 87<0 532>
LayerCount: 2
Fore
SplineSet
78 700 m 4xf0
 78 730 102 754 132 754 c 4
 162 754 186 730 186 700 c 4
 186 670 162 646 132 646 c 4
 102 646 78 670 78 700 c 4xf0
173 0 m 5xe8
 91 0 l 5
 91 532 l 5
 173 532 l 5
 173 0 l 5xe8
EndSplineSet
EndChar

StartChar: dotlessi
Encoding: 305 305 148
Width: 284
GlyphClass: 2
Flags: HW
LayerCount: 2
Fore
SplineSet
183 0 m 1xe8
 101 0 l 1
 101 532 l 1
 183 532 l 1
 183 0 l 1xe8
EndSplineSet
EndChar

StartChar: ij
Encoding: 307 307 153
Width: 571
GlyphClass: 2
Flags: HW
LayerCount: 2
Fore
SplineSet
371 700 m 0xf0
 371 730 395 754 425 754 c 0
 455 754 479 730 479 700 c 0
 479 670 455 646 425 646 c 0
 395 646 371 670 371 700 c 0xf0
466 532 m 1
 466 -15 l 2
 466 -141 395 -199 310 -199 c 0
 270 -199 230 -186 199 -163 c 1xf4
 238 -95 l 1
 260 -109 288 -117 310 -117 c 0
 355 -117 384 -72 384 -6 c 2
 384 532 l 1
 466 532 l 1
88 700 m 4
 88 730 112 754 142 754 c 4
 172 754 196 730 196 700 c 4
 196 670 172 646 142 646 c 4
 112 646 88 670 88 700 c 4
183 0 m 5
 101 0 l 5
 101 532 l 5
 183 532 l 5
 183 0 l 5
EndSplineSet
EndChar

StartChar: j
Encoding: 106 106 157
Width: 274
GlyphClass: 2
Flags: HW
LayerCount: 2
Fore
SplineSet
208 700 m 4xf0
 208 730 232 754 262 754 c 4
 292 754 316 730 316 700 c 4
 316 670 292 646 262 646 c 4
 232 646 208 670 208 700 c 4xf0
303 532 m 5xe8
 303 -15 l 6
 303 -141 232 -199 147 -199 c 4
 107 -199 67 -186 36 -163 c 5
 75 -95 l 5
 97 -109 125 -117 147 -117 c 4
 192 -117 221 -72 221 -6 c 6
 221 532 l 5
 303 532 l 5xe8
EndSplineSet
EndChar

StartChar: dotlessj
Encoding: 567 567 158
Width: 274
GlyphClass: 2
Flags: HW
LayerCount: 2
Fore
SplineSet
183 532 m 1xe8
 183 -15 l 2
 183 -141 112 -199 27 -199 c 0
 -13 -199 -53 -186 -84 -163 c 1
 -45 -95 l 1
 -23 -109 5 -117 27 -117 c 0
 72 -117 101 -72 101 -6 c 2
 101 532 l 1
 183 532 l 1xe8
EndSplineSet
EndChar

StartChar: k
Encoding: 107 107 160
Width: 617
GlyphClass: 2
Flags: HW
HStem: 0 21G<58.4004 143.4 390.571 503.077> 512 20G<364.633 489.345> 722 20G<58.4004 143.4>
VStem: 58 85<0 115.532 228.18 742>
AnchorPoint: "Anchor-0" 106 0 basechar 0
LayerCount: 2
Fore
SplineSet
73 742 m 1
 153 742 l 1
 153 0 l 1
 73 0 l 1
 73 742 l 1
474 0 m 1
 258 333 l 1
 353 334 l 1
 570 0 l 1
 474 0 l 1
448 532 m 1
 555 532 l 1
 152 113 l 1
 121.861328125 192 l 1
 448 532 l 1
EndSplineSet
EndChar

StartChar: kgreenlandic
Encoding: 312 312 162
Width: 590
GlyphClass: 2
Flags: HW
AnchorPoint: "Anchor-0" 293 0 basechar 0
LayerCount: 2
Fore
SplineSet
85 532 m 1
 170 532 l 1
 170 0 l 1
 85 0 l 1
 85 532 l 1
486 0 m 1
 269 334 l 1
 365 334 l 1
 582 0 l 1
 486 0 l 1
450 532 m 1
 567 532 l 1
 167 115 l 1
 123.861328125 192 l 1
 450 532 l 1
EndSplineSet
EndChar

StartChar: l
Encoding: 108 108 163
Width: 264
GlyphClass: 2
Flags: HW
HStem: 0 21G<70.4004 160.4> 722 20G<70.4004 160.4>
VStem: 70 90<0 742>
AnchorPoint: "Anchor-0" 131 0 basechar 0
LayerCount: 2
Fore
SplineSet
173 0 m 1
 88 0 l 1
 88 742 l 1
 173 742 l 1
 173 0 l 1
EndSplineSet
EndChar

StartChar: lslash
Encoding: 322 322 168
Width: 310
GlyphClass: 2
Flags: HW
AnchorPoint: "Anchor-0" 165 0 basechar 0
LayerCount: 2
Fore
SplineSet
222 421 m 1
 222 0 l 1
 107 0 l 1
 107 388 l 1
 -1 356 l 1
 -21 432 l 1
 107 470 l 1
 107 742 l 1
 222 742 l 1
 222 504 l 1
 317 532 l 1
 337 455 l 1
 222 421 l 1
EndSplineSet
EndChar

StartChar: m
Encoding: 109 109 169
Width: 906
GlyphClass: 2
Flags: HW
LayerCount: 2
Fore
SplineSet
660 536 m 0
 777 536 835 458 835 331 c 2
 835 0 l 1
 750 0 l 1
 750 329 l 2
 750 420 697 459 624 459 c 0
 538 459 493 376 493 283 c 2
 493 0 l 1
 408 0 l 1
 408 329 l 2
 408 410 361 459 288 459 c 0
 201 459 150 386 150 293 c 2
 150 0 l 1
 71 0 l 1
 71 532 l 1
 150 532 l 1
 150 444 l 5
 178 498 230 536 313 536 c 0
 403 536 447 484 468 428 c 1
 492 487 568 536 660 536 c 0
EndSplineSet
EndChar

StartChar: n
Encoding: 110 110 170
Width: 606
GlyphClass: 2
Flags: HW
HStem: 0 21G<56.7998 144.8 384 471> 457 79<203.679 332.385>
VStem: 57 88<0 394.369 456.885 532> 384 87<0 401.554>
AnchorPoint: "Anchor-0" 297 0 basechar 0
LayerCount: 2
Fore
SplineSet
341 536 m 4
 460 536 535 458 535 331 c 2
 535 0 l 1
 453 0 l 1
 453 324 l 2
 453 404 391 462 306 462 c 4
 213 462 154 394 154 308 c 2
 154 0 l 1
 71 0 l 1
 71 532 l 1
 154 532 l 1
 154 450 l 1
 182 504 256 536 341 536 c 4
EndSplineSet
EndChar

StartChar: o
Encoding: 111 111 175
Width: 654
GlyphClass: 2
Flags: HW
HStem: -6 85<212.247 352.6> 451 85<211.8 352.6>
VStem: 44 83<170.742 359.253> 437 83<170.747 359.253>
LayerCount: 2
Fore
SplineSet
133 265 m 4
 133 158 220 74 327 74 c 4
 434 74 521 158 521 265 c 4
 521 372 434 456 327 456 c 4
 220 456 133 372 133 265 c 4
55 265 m 4
 55 420 169 536 327 536 c 4
 485 536 599 420 599 265 c 4
 599 110 485 -6 327 -6 c 4
 172 -6 55 110 55 265 c 4
EndSplineSet
Substitution2: "Single Substitution lookup 14 subtable" ordmasculine
Substitution2: "'aalt' Access All Alternates lookup 0 subtable" ordmasculine
EndChar

StartChar: oslash
Encoding: 248 248 182
Width: 625
GlyphClass: 2
Flags: HW
LayerCount: 2
Fore
SplineSet
118 265 m 0x06
 118 158 205 74 312 74 c 0
 419 74 506 158 506 265 c 0
 506 372 419 456 312 456 c 0
 205 456 118 372 118 265 c 0x06
40 265 m 0
 40 420 154 536 312 536 c 0x26
 470 536 584 420 584 265 c 0
 584 110 470 -6 312 -6 c 0
 157 -6 40 110 40 265 c 0
154 -146 m 5
 416 665 l 5
 468 665 l 5
 206 -146 l 5
 154 -146 l 5
EndSplineSet
EndChar

StartChar: oe
Encoding: 339 339 184
Width: 1040
GlyphClass: 2
Flags: HW
LayerCount: 2
Fore
SplineSet
1018.54980469 230 m 1x2e
 931.506835938 230 l 1
 935.1015625 244.17578125 940 284.244140625 940 300 c 0
 940 365 883 460 769 460 c 0
 660 460 586 375 586 265 c 0
 586 155 666 69 770 69 c 0
 849 69 916 107 947 144 c 1
 996.961914062 87.572265625 l 1
 946.971679688 29.5439453125 866.4609375 -6 779 -6 c 0
 604 -6 507 130 507 265 c 0
 507 400 601 536 769 536 c 0
 937 536 1021 400 1021 265 c 0
 1021 249.588867188 1019.82324219 238.564453125 1018.54980469 230 c 1x2e
1017.54980469 230 m 1
 574 230 l 1
 574 296 l 1
 1008 296 l 1
 1017.54980469 230 l 1
119 265 m 0
 119 158 206 74 313 74 c 0
 420 74 507 158 507 265 c 0
 507 372 420 456 313 456 c 0
 206 456 119 372 119 265 c 0
41 265 m 0
 41 420 155 536 313 536 c 0x36
 471 536 585 420 585 265 c 0
 585 110 471 -6 313 -6 c 0
 158 -6 41 110 41 265 c 0
EndSplineSet
EndChar

StartChar: p
Encoding: 112 112 185
Width: 688
GlyphClass: 2
Flags: HW
LayerCount: 2
Fore
SplineSet
348 463 m 4
 243 463 161 387 161 264 c 4
 161 144 243 67 348 67 c 4
 458 67 540 145 540 264 c 4
 540 386 458 463 348 463 c 4
357 -4 m 4
 274 -4 200 30 161 92 c 5
 161 -194 l 5
 86 -194 l 5
 86 532 l 5
 161 532 l 5
 161 440 l 5
 200 502 274 536 359 536 c 4
 511 536 616 427 616 268 c 4
 616 106 508 -4 357 -4 c 4
EndSplineSet
EndChar

StartChar: thorn
Encoding: 254 254 186
Width: 680
GlyphClass: 2
Flags: HW
AnchorPoint: "Anchor-0" 148 0 basechar 0
LayerCount: 2
Fore
SplineSet
365 463 m 0
 260 463 178 387 178 264 c 0
 178 144 260 67 365 67 c 0
 475 67 557 145 557 264 c 0
 557 386 475 463 365 463 c 0
374 -4 m 0
 291 -4 217 30 178 92 c 1
 178 -194 l 1
 103 -194 l 1
 103 742 l 1
 178 742 l 1
 178 440 l 1
 217 502 291 536 376 536 c 0
 528 536 633 427 633 268 c 0
 633 106 525 -4 374 -4 c 0
EndSplineSet
EndChar

StartChar: q
Encoding: 113 113 187
Width: 688
GlyphClass: 2
Flags: HW
LayerCount: 2
Fore
SplineSet
334 463 m 0
 224 463 142 386 142 264 c 0
 142 145 224 67 334 67 c 0
 439 67 521 144 521 264 c 0
 521 387 439 463 334 463 c 0
325 -4 m 0
 174 -4 66 106 66 268 c 0
 66 427 171 536 323 536 c 0
 408 536 482 502 521 440 c 1
 521 532 l 1
 596 532 l 1
 596 -194 l 1
 521 -194 l 1
 521 92 l 1
 482 30 408 -4 325 -4 c 0
EndSplineSet
EndChar

StartChar: r
Encoding: 114 114 188
Width: 452
GlyphClass: 2
Flags: HW
HStem: 0 21G<56.7998 136.8> 447 89<233.27 360>
VStem: 57 80<0 366.719 442.121 532>
AnchorPoint: "Anchor-0" 126 0 basechar 0
LayerCount: 2
Fore
SplineSet
146 532 m 5
 146 436 l 5
 182 498 286 536 390 536 c 1
 390 451 l 1
 283 457 146 403 146 293 c 5
 146 0 l 5
 71 0 l 1
 71 532 l 1
 146 532 l 5
EndSplineSet
EndChar

StartChar: s
Encoding: 115 115 192
Width: 527
GlyphClass: 2
Flags: HW
HStem: -11 76<154.938 315.896> 461 76<173.119 330.651>
VStem: 72 84<341.405 442.534> 348 82<94.2961 189.725>
AnchorPoint: "Anchor-0" 262 -7 basechar 0
LayerCount: 2
Fore
SplineSet
272 537 m 0
 339 537 405 517 453 483 c 1
 421 418 l 1
 374 447 320 466 263 466 c 0
 208 466 160 450 160 392 c 0
 160 332.7890625 227.771484375 316.887695312 280 302.55859375 c 0
 362.1171875 280.029296875 467 252 467 154 c 0
 467 44.9995099962 370 -11 263 -11 c 0
 185 -11 102 22 49 70 c 1
 90 131 l 1
 136 90 190 60 268 60 c 0
 337 60 390 89 390 144 c 0
 390 203.96875 309.360351562 217.858398438 255 232.846679688 c 0
 174.713867188 254.983398438 81 290 81 383 c 0
 81 490.999810413 175 537 272 537 c 0
EndSplineSet
EndChar

StartChar: germandbls
Encoding: 223 223 197
Width: 654
GlyphClass: 2
Flags: HW
LayerCount: 2
Fore
SplineSet
333 747 m 0xf8
 470 747 566 671 566 554 c 0xf8
 566 476 521 408 450 381 c 1
 540 363 606 306 606 210 c 0
 606 88 503 0 343 0 c 2
 292 0 l 1
 292 89 l 1
 352 89 l 2
 438 89 494 138 494 207 c 0xf4
 494 282 428 325 327 325 c 2
 314 325 l 1
 314 413 l 1
 400 413 455 461 455 536 c 0
 455 609 405 654 331 654 c 0
 245 654 192 593 192 496 c 2
 192 0 l 1
 78 0 l 1
 78 488 l 2
 78 645 174 747 333 747 c 0xf8
EndSplineSet
EndChar

StartChar: t
Encoding: 116 116 198
Width: 461
GlyphClass: 2
Flags: HW
HStem: -5 84<233.677 343.847> 433 75<40 130 216.236 382.104>
VStem: 130 86<97.6512 432.699 508.293 658>
AnchorPoint: "Anchor-0" 264 0 basechar 0
LayerCount: 2
Fore
SplineSet
373 103 m 5
 405 34 l 1
 363 9 319 -5 274 -5 c 0
 199 -5 140 61 140 170 c 2
 140 436 l 1
 50 436 l 1
 50 507 l 1
 140 507 l 1
 140 658 l 1
 219 658 l 1
 219 507 l 1
 396 507 l 1
 396 436 l 1
 219 436 l 1
 219 166 l 2
 219 101 251 74 296 74 c 0
 320 74 342 83 373 103 c 5
EndSplineSet
EndChar

StartChar: u
Encoding: 117 117 202
Width: 600
GlyphClass: 2
Flags: HW
HStem: -4 79<185.207 315.731> 512 20G<52.7998 135.8 375 463>
VStem: 53 83<130.466 532> 375 88<0 75.1035 137.651 532>
LayerCount: 2
Fore
SplineSet
257 -4 m 4
 138 -4 66 74 66 201 c 6
 66 532 l 5
 144 532 l 5
 144 208 l 6
 144 128 204 70 289 70 c 4
 382 70 443 138 443 224 c 6
 443 532 l 5
 526 532 l 5
 526 0 l 5
 443 0 l 5
 443 82 l 5
 415 28 342 -4 257 -4 c 4
EndSplineSet
EndChar

StartChar: v
Encoding: 118 118 211
Width: 627
GlyphClass: 2
Flags: HW
LayerCount: 2
Fore
SplineSet
489 532 m 1
 575 532 l 1
 363 0 l 1
 279 0 l 1
 489 532 l 1
46 532 m 1
 132 532 l 1
 342 0 l 1
 258 0 l 1
 46 532 l 1
EndSplineSet
EndChar

StartChar: w
Encoding: 119 119 212
Width: 898
GlyphClass: 2
Flags: HW
HStem: 0 21G<189.146 292.857 545.196 649.838> 512 20G<37.5996 134.432 374.085 453.398 689.401 784.824>
LayerCount: 2
Fore
SplineSet
710 0 m 1
 621 0 l 1
 446 414 l 1
 291 0 l 1
 203 0 l 1
 47 532 l 1
 133 532 l 1
 250 114 l 1
 407 532 l 1
 486 532 l 1
 654 114 l 1
 759 532 l 5
 844 532 l 1
 710 0 l 1
EndSplineSet
EndChar

StartChar: x
Encoding: 120 120 217
Width: 619
GlyphClass: 2
Flags: HW
LayerCount: 2
Fore
SplineSet
60 532 m 1
 156 532 l 1
 571 0 l 1
 475 0 l 1
 60 532 l 1
47 0 m 1
 462 532 l 1
 558 532 l 1
 143 0 l 1
 47 0 l 1
EndSplineSet
EndChar

StartChar: y
Encoding: 121 121 218
Width: 639
GlyphClass: 2
Flags: HW
HStem: -199 76<96.4211 211.102> 512 20G<36.7998 135.295 430.965 527.735>
LayerCount: 2
Fore
SplineSet
587 532 m 1
 345 -73 l 2
 312 -157 252 -199 172 -199 c 0
 124 -199 86 -185 49 -154 c 1
 79 -93 l 1
 104 -111 147 -128 171 -128 c 0
 206 -128 242.895940261 -114.453466086 280 -32 c 2
 298 8 l 1
 46 532 l 1
 131 532 l 1
 338 94 l 1
 502 532 l 5
 587 532 l 1
EndSplineSet
EndChar

StartChar: z
Encoding: 122 122 223
Width: 577
GlyphClass: 2
Flags: HW
HStem: 0 78<167.875 468> 453 79<57 340.729>
LayerCount: 2
Fore
SplineSet
506 469 m 1
 172 74 l 1
 515 73 l 1
 515 -1 l 1
 60 0 l 1
 60 63 l 1
 394 458 l 1
 69 458 l 1
 69 532 l 1
 506 531 l 1
 506 469 l 1
EndSplineSet
EndChar

StartChar: fi
Encoding: 64257 64257 227
Width: 657
GlyphClass: 3
Flags: HW
LayerCount: 2
Fore
SplineSet
470 700 m 4x8c
 470 730 494 754 524 754 c 4x94
 554 754 578 730 578 700 c 4
 578 670 554 646 524 646 c 4
 494 646 470 670 470 700 c 4x8c
565 0 m 5
 483 0 l 5
 483 532 l 5
 565 532 l 5xa4
 565 0 l 5
107 507 m 5
 107 564 l 6
 107 691 201 747 290 747 c 4x8c
 326 747 361 739 389 723 c 5
 385 643 l 5
 354 667 316 676 288 676 c 4
 237 676 186 627 186 575 c 6
 186 507 l 5
 360 507 l 5
 360 436 l 5
 186 436 l 5
 186 0 l 5
 107 0 l 5
 107 436 l 5
 37 436 l 5
 37 507 l 5
 107 507 l 5
EndSplineSet
LCarets2: 1 0
Ligature2: "'liga' Standard Ligatures lookup 12 subtable" f i
EndChar

StartChar: fl
Encoding: 64258 64258 228
Width: 651
GlyphClass: 3
Flags: HW
LayerCount: 2
Fore
SplineSet
565 0 m 1xe8
 483 0 l 1
 483 742 l 1
 565 742 l 1
 565 0 l 1xe8
107 507 m 1
 107 564 l 2
 107 691 201 747 290 747 c 0
 326 747 361 739 389 723 c 1
 385 643 l 1
 354 667 316 676 288 676 c 0
 237 676 186 627 186 575 c 2
 186 507 l 1
 360 507 l 1xcd
 360 436 l 1
 186 436 l 1
 186 0 l 1
 107 0 l 1
 107 436 l 1
 37 436 l 1xad
 37 507 l 1
 107 507 l 1
EndSplineSet
LCarets2: 1 0
Ligature2: "'liga' Standard Ligatures lookup 12 subtable" f l
EndChar

StartChar: ordfeminine
Encoding: 170 170 229
Width: 596
GlyphClass: 2
Flags: HW
LayerCount: 2
Fore
SplineSet
198 777 m 0
 285 777 335 735 335 664 c 2
 335 458 l 1
 256 458 l 1
 256 508 l 1
 231 473 192 455 141 455 c 0
 74 455 33 494 33 550 c 0
 33 608 78 640 158 641 c 2
 255 641 l 1
 255 655 l 2
 255 692 230 714 179 714 c 0
 146 714 110 703 72 684 c 1
 52 740 l 1
 100 763 150 777 198 777 c 0
168 509 m 0
 207 509 237 524 255 558 c 1
 255 600 l 1
 174 600 l 2
 133 600 109 585 109 557 c 0
 109 528 132 509 168 509 c 0
EndSplineSet
EndChar

StartChar: ordmasculine
Encoding: 186 186 230
Width: 654
GlyphClass: 2
Flags: HW
LayerCount: 2
Fore
SplineSet
203 776 m 0
 306 776 377 712 377 616 c 0
 377 520 306 456 203 456 c 0
 100 456 30 520 30 616 c 0
 30 712 100 776 203 776 c 0
203 710 m 0
 149 710 111 672 111 615 c 0
 111 558 149 520 203 520 c 0
 257 520 294 558 294 615 c 0
 294 672 257 710 203 710 c 0
EndSplineSet
EndChar

StartChar: Delta
Encoding: 916 916 231
Width: 738
GlyphClass: 2
Flags: HW
LayerCount: 2
Fore
SplineSet
737 0 m 1xb0
 1 0 l 1
 310 700 l 1
 431 700 l 1
 737 0 l 1xb0
571 93 m 1
 367 574 l 1xd0
 163 93 l 1
 571 93 l 1
EndSplineSet
Position2: "'cpsp' Capital Spacing lookup 0 subtable" dx=5 dy=0 dh=10 dv=0
EndChar

StartChar: Omega
Encoding: 8486 8486 232
Width: 882
GlyphClass: 2
Flags: HW
LayerCount: 2
Fore
SplineSet
441 706 m 0
 648 706 801 564 801 372 c 0
 801 272 744 160 664 100 c 1
 873 100 l 1
 873 0 l 1
 541 0 l 1
 541 93 l 1
 631 146 696 259 696 362 c 0
 696 501 588 601 441 601 c 0
 294 601 187 501 187 362 c 0
 187 259 252 146 342 92 c 1
 342 0 l 1
 9 0 l 1
 9 100 l 1
 219 100 l 1
 139 160 82 271 82 372 c 0
 82 564 234 706 441 706 c 0
EndSplineSet
Position2: "'cpsp' Capital Spacing lookup 0 subtable" dx=5 dy=0 dh=10 dv=0
EndChar

StartChar: mu
Encoding: 181 181 233
Width: 675
GlyphClass: 2
Flags: HW
LayerCount: 2
Fore
SplineSet
98 532 m 1x9c
 176 532 l 1
 176 -194 l 5
 98 -194 l 5
 98 532 l 1x9c
289 -4 m 0xdc
 170 -4 98 74 98 201 c 2
 98 532 l 1
 176 532 l 1
 176 208 l 2
 176 128 236 70 321 70 c 0
 414 70 475 138 475 224 c 2
 475 532 l 1
 558 532 l 1
 558 0 l 1
 475 0 l 1xbc
 475 82 l 1
 447 28 374 -4 289 -4 c 0xdc
EndSplineSet
EndChar

StartChar: pi
Encoding: 960 960 234
Width: 725
GlyphClass: 2
Flags: HW
LayerCount: 2
Fore
SplineSet
715 444 m 1
 568 444 l 1
 568 0 l 1
 472 0 l 1
 472 444 l 1
 325 444 l 1
 275 0 l 1
 179 0 l 1
 228 444 l 1
 177 444 l 2
 121 444 80 409 81 360 c 0
 81 337 91 308 107 284 c 1
 27 253 l 1
 5 289 -9 338 -10 380 c 0
 -11 466 63 532 163 532 c 2
 715 532 l 1
 715 444 l 1
EndSplineSet
EndChar

StartChar: zero
Encoding: 48 48 235
Width: 600
Flags: HW
LayerCount: 2
Fore
SplineSet
301 703 m 0
 467 703 567 557 567 350 c 0
 567 143 477 -3 301 -3 c 0
 124 -3 33 143 33 350 c 0
 33 557 134 703 301 703 c 0
301 620 m 0
 198 620 114 528 114 350 c 0
 114 183 188 80 301 80 c 0
 413 80 486 183 486 350 c 0
 486 528 403 620 301 620 c 0
EndSplineSet
Substitution2: "'frac' Diagonal Fractions lookup 9 subtable" zero.numr
Substitution2: "'dnom' Denominators lookup 7 subtable" zero.dnom
Substitution2: "'numr' Numerators lookup 6 subtable" zero.numr
AlternateSubs2: "'aalt' Access All Alternates lookup 1 subtable" zero.numr zero.dnom
EndChar

StartChar: one
Encoding: 49 49 236
Width: 600
Flags: HW
LayerCount: 2
Fore
SplineSet
414 0 m 1
 332 0 l 1
 332 603 l 5
 138 545 l 5
 138 630 l 1
 414 718 l 1
 414 0 l 1
EndSplineSet
Substitution2: "'frac' Diagonal Fractions lookup 9 subtable" one.numr
Substitution2: "'dnom' Denominators lookup 7 subtable" one.dnom
Substitution2: "'numr' Numerators lookup 6 subtable" one.numr
Substitution2: "'sups' Superscript lookup 5 subtable" onesuperior
AlternateSubs2: "'aalt' Access All Alternates lookup 1 subtable" onesuperior one.numr one.dnom
EndChar

StartChar: two
Encoding: 50 50 237
Width: 600
Flags: HW
LayerCount: 2
Fore
SplineSet
300 705 m 0
 432 705 523 621 523 514 c 0
 523 433 449 369 375 289 c 2
 153 76 l 1
 555 76 l 1
 555 0 l 1
 57 0 l 1
 57 86 l 1
 335 358 l 2
 386 410 443 467 443 520 c 4
 443 586 385 625 287 625 c 4
 226 625 147 583 88 529 c 1
 50 600 l 1
 126 662 210 705 300 705 c 0
EndSplineSet
Substitution2: "'frac' Diagonal Fractions lookup 9 subtable" two.numr
Substitution2: "'dnom' Denominators lookup 7 subtable" two.dnom
Substitution2: "'numr' Numerators lookup 6 subtable" two.numr
Substitution2: "'sups' Superscript lookup 5 subtable" twosuperior
AlternateSubs2: "'aalt' Access All Alternates lookup 1 subtable" twosuperior two.numr two.dnom
EndChar

StartChar: three
Encoding: 51 51 238
Width: 600
Flags: HW
LayerCount: 2
Fore
SplineSet
307.5 409 m 5
 348.5 405 l 2
 465.5 395 545.5 327 545.5 217 c 0
 545.5 86 446.5 -5 290.5 -5 c 0
 204.5 -5 114.5 25 54.5 71 c 1
 93.5 139 l 1
 143.5 98 218.5 68 282.5 68 c 0
 395.5 68 469.5 119 469.5 214 c 0
 469.5 305 389.5 339 291.5 339 c 2
 204.5 339 l 1
 204.5 398 l 1
 416.5 624 l 1
 86.5 624 l 1
 86.5 699 l 1
 512.5 699 l 1
 512.5 625 l 1
 307.5 409 l 5
EndSplineSet
Substitution2: "'frac' Diagonal Fractions lookup 9 subtable" three.numr
Substitution2: "'dnom' Denominators lookup 7 subtable" three.dnom
Substitution2: "'numr' Numerators lookup 6 subtable" three.numr
Substitution2: "'sups' Superscript lookup 5 subtable" threesuperior
AlternateSubs2: "'aalt' Access All Alternates lookup 1 subtable" threesuperior three.numr three.dnom
EndChar

StartChar: four
Encoding: 52 52 239
Width: 600
Flags: HW
LayerCount: 2
Fore
SplineSet
123 242 m 5
 396 242 l 5
 396 700 l 1
 471 700 l 1
 471 242 l 5
 573 242 l 5
 573 172 l 1
 471 172 l 1
 471 0 l 1
 396 0 l 1
 396 172 l 1
 27 172 l 1
 27 230 l 1
 366 700 l 1
 450 700 l 1
 123 242 l 5
EndSplineSet
Substitution2: "'frac' Diagonal Fractions lookup 9 subtable" four.numr
Substitution2: "'dnom' Denominators lookup 7 subtable" four.dnom
Substitution2: "'numr' Numerators lookup 6 subtable" four.numr
AlternateSubs2: "'aalt' Access All Alternates lookup 1 subtable" four.numr four.dnom
EndChar

StartChar: five
Encoding: 53 53 240
Width: 600
Flags: HW
LayerCount: 2
Fore
SplineSet
526 624 m 1
 178 624 l 1
 178 425 l 1
 304 426 l 2
 456 426 554 354 554 231 c 0
 554 89 452 -4 295 -4 c 0
 212 -4 115 28 46 76 c 1
 98 143 l 1
 154 106 224 77 287 77 c 0
 388 77 470 132 470 226 c 0
 470 312 393 351 293 351 c 0
 251 351 146 347 99 342 c 1
 99 700 l 1
 525 700 l 1
 526 624 l 1
EndSplineSet
Substitution2: "'frac' Diagonal Fractions lookup 9 subtable" five.numr
Substitution2: "'dnom' Denominators lookup 7 subtable" five.dnom
Substitution2: "'numr' Numerators lookup 6 subtable" five.numr
AlternateSubs2: "'aalt' Access All Alternates lookup 1 subtable" five.numr five.dnom
EndChar

StartChar: six
Encoding: 54 54 241
Width: 600
Flags: HW
LayerCount: 2
Fore
SplineSet
336.5 705 m 4
 405.5 705 488.5 684 545.5 652 c 5
 510.5 582 l 5
 467.5 610 397.5 627 344.5 627 c 4
 203.5 627 115.5 505 119.5 349 c 5
 156.5 414 252.5 458 340.5 458 c 4
 480.5 458 565.5 366 565.5 230 c 4
 565.5 85 468.5 -5 319.5 -5 c 4
 142.5 -5 34.5 121 34.5 336 c 4
 34.5 559 151.5 705 336.5 705 c 4
318.5 375 m 4
 223.5 375 137.640822673 319.001422893 138.5 227 c 4
 139.163093397 155.995407491 212.5 77 313.5 77 c 4
 408.5 77 483.5 136 483.5 231 c 4
 483.5 321 413.5 375 318.5 375 c 4
EndSplineSet
Substitution2: "'frac' Diagonal Fractions lookup 9 subtable" six.numr
Substitution2: "'dnom' Denominators lookup 7 subtable" six.dnom
Substitution2: "'numr' Numerators lookup 6 subtable" six.numr
AlternateSubs2: "'aalt' Access All Alternates lookup 1 subtable" six.numr six.dnom
EndChar

StartChar: seven
Encoding: 55 55 242
Width: 600
Flags: HW
LayerCount: 2
Fore
SplineSet
554.5 630 m 1
 275.5 0 l 1
 185.5 0 l 1
 464.5 624 l 5
 45.5 624 l 1
 45.5 700 l 1
 554.5 700 l 1
 554.5 630 l 1
EndSplineSet
Substitution2: "'frac' Diagonal Fractions lookup 9 subtable" seven.numr
Substitution2: "'dnom' Denominators lookup 7 subtable" seven.dnom
Substitution2: "'numr' Numerators lookup 6 subtable" seven.numr
AlternateSubs2: "'aalt' Access All Alternates lookup 1 subtable" seven.numr seven.dnom
EndChar

StartChar: eight
Encoding: 56 56 243
Width: 600
Flags: HW
LayerCount: 2
Fore
SplineSet
299.5 705 m 0xec
 443.5 705 534.5 636 534.5 524 c 0xf4
 534.5 456 510.5 403 445.5 374 c 1
 530.5 346 569.5 281 569.5 196 c 0
 569.5 71 465.5 -5 299.5 -5 c 0
 134.5 -5 30.5 71 30.5 194 c 0xf2
 30.5 280 70.5 346 159.5 374 c 1
 91.5 405 65.5 460 65.5 528 c 0
 65.5 638 156.5 705 299.5 705 c 0xec
299.5 630 m 0
 205.5 630 135.5 587 135.5 527 c 0
 135.5 457 215.5 410 299.5 410 c 0
 384.5 410 463.5 457 463.5 527 c 0
 463.5 587 394.5 630 299.5 630 c 0
299.5 328 m 0xf2
 200.5 328 107.5 285 107.5 207 c 0
 107.5 126 189.5 68 299.5 68 c 0
 409.5 68 492.5 126 492.5 207 c 0
 492.5 285 399.5 328 299.5 328 c 0xf2
EndSplineSet
Substitution2: "'frac' Diagonal Fractions lookup 9 subtable" eight.numr
Substitution2: "'dnom' Denominators lookup 7 subtable" eight.dnom
Substitution2: "'numr' Numerators lookup 6 subtable" eight.numr
AlternateSubs2: "'aalt' Access All Alternates lookup 1 subtable" eight.numr eight.dnom
EndChar

StartChar: nine
Encoding: 57 57 244
Width: 600
Flags: HW
LayerCount: 2
Fore
SplineSet
263.5 -5 m 0
 194.5 -5 111.5 16 54.5 48 c 1
 89.5 118 l 1
 132.5 90 202.5 73 255.5 73 c 0
 396.5 73 484.5 195 480.5 351 c 1
 443.5 286 347.5 242 259.5 242 c 0
 119.5 242 34.5 334 34.5 470 c 0
 34.5 615 131.5 705 280.5 705 c 0
 457.5 705 565.5 579 565.5 364 c 0
 565.5 141 448.5 -5 263.5 -5 c 0
281.5 325 m 0
 376.5 325 462.359375 380.999023438 461.5 473 c 0
 460.836914062 544.004882812 387.5 623 286.5 623 c 0
 191.5 623 116.5 564 116.5 469 c 0
 116.5 379 186.5 325 281.5 325 c 0
EndSplineSet
Substitution2: "'frac' Diagonal Fractions lookup 9 subtable" nine.numr
Substitution2: "'dnom' Denominators lookup 7 subtable" nine.dnom
Substitution2: "'numr' Numerators lookup 6 subtable" nine.numr
AlternateSubs2: "'aalt' Access All Alternates lookup 1 subtable" nine.numr nine.dnom
EndChar

StartChar: fraction
Encoding: 8260 8260 245
Width: 80
Flags: HW
LayerCount: 2
Fore
SplineSet
-277 0 m 1
 238 700 l 1
 348 700 l 1
 -166 0 l 1
 -277 0 l 1
EndSplineSet
EndChar

StartChar: onehalf
Encoding: 189 189 246
Width: 839
Flags: HW
LayerCount: 2
Fore
SplineSet
99 287 m 1
 99 631 l 1
 16 631 l 1
 16 700 l 1
 183 700 l 1
 183 287 l 1
 99 287 l 1
50 0 m 1
 565 700 l 1
 675 700 l 1
 161 0 l 1
 50 0 l 1
647 416 m 0
 729 416 786 375 786 311 c 0
 786 268 754 221 706 175 c 2
 598 67 l 1
 804 67 l 1
 804 0 l 1
 493 0 l 1
 493 57 l 1
 650 217 l 2
 679 246 699 278 699 300 c 0
 699 329 675 347 634 347 c 0
 598 347 554 327 517 295 c 1
 484 356 l 1
 533 394 589 416 647 416 c 0
EndSplineSet
EndChar

StartChar: onequarter
Encoding: 188 188 247
Width: 817
Flags: HW
LayerCount: 2
Fore
SplineSet
99 287 m 1xb8
 99 631 l 1
 16 631 l 1
 16 700 l 1
 183 700 l 1
 183 287 l 1
 99 287 l 1xb8
50 0 m 1
 565 700 l 1
 675 700 l 1
 161 0 l 1
 50 0 l 1
655 159 m 1
 655 261 l 1
 734 261 l 1x78
 734 159 l 1
 795 159 l 1xb8
 795 97 l 1
 734 97 l 1x78
 734 0 l 1
 655 0 l 1xb8
 655 97 l 1
 451 97 l 1
 451 156 l 1x78
 594 413 l 1
 674 413 l 1
 535 159 l 1
 655 159 l 1
EndSplineSet
EndChar

StartChar: threequarters
Encoding: 190 190 248
Width: 878
Flags: HW
LayerCount: 2
Fore
SplineSet
112 0 m 1xbe
 627 700 l 1
 737 700 l 1
 223 0 l 1
 112 0 l 1xbe
181 529 m 1
 203 527 l 2
 272 520 320 480 320 415 c 0
 320 338 258 283 161 283 c 0
 106 283 48 302 11 329 c 1
 46 395 l 1
 77 364 115 347 155 347 c 0
 207 347 238 373 238 414 c 0
 238 455 207 476 154 476 c 2
 92 476 l 1
 92 522 l 1
 204 636 l 1
 31 636 l 1
 31 698 l 1
 300 698 l 1
 300 649 l 1
 181 529 l 1
717 159 m 1
 717 261 l 1
 796 261 l 1x7e
 796 159 l 1
 857 159 l 1xbe
 857 97 l 1
 796 97 l 1x7e
 796 0 l 1
 717 0 l 1xbe
 717 97 l 1
 513 97 l 1
 513 156 l 1x7e
 656 413 l 1
 736 413 l 1
 597 159 l 1
 717 159 l 1
EndSplineSet
EndChar

StartChar: oneeighth
Encoding: 8539 8539 249
Width: 834
Flags: HW
LayerCount: 2
Fore
SplineSet
99 287 m 1xbe40
 99 631 l 1
 16 631 l 1
 16 700 l 1
 183 700 l 1
 183 287 l 1
 99 287 l 1xbe40
50 0 m 1x7d80
 565 700 l 1
 675 700 l 1
 161 0 l 1
 50 0 l 1x7d80
630 416 m 0
 720 416 778 375 778 308 c 0xbe80
 778 270 754 238 717 221 c 1
 768 203 799 165 799 116 c 0
 799 42 734 -3 631 -3 c 0
 527 -3 462 42 462 115 c 0xbe40
 462 164 495 203 548 221 c 1
 508 239 484 272 484 311 c 0
 484 376 541 416 630 416 c 0
631 360 m 0
 582 360 554 339 554 304 c 0
 554 268 582 248 631 248 c 0xbd80
 679 248 707 268 707 304 c 0
 707 339 679 360 631 360 c 0
630 186 m 0xbe40
 574 186 541 163 541 124 c 0
 541 82 574 59 631 59 c 0
 687 59 720 82 720 123 c 0
 720 163 688 186 630 186 c 0xbe40
EndSplineSet
EndChar

StartChar: threeeighths
Encoding: 8540 8540 250
Width: 896
Flags: HW
LayerCount: 2
Fore
SplineSet
112 0 m 1x7f90
 627 700 l 1
 737 700 l 1
 223 0 l 1
 112 0 l 1x7f90
181 529 m 1
 203 527 l 2
 272 520 320 480 320 415 c 0
 320 338 258 283 161 283 c 0
 106 283 48 302 11 329 c 1
 46 395 l 1
 77 364 115 347 155 347 c 0
 207 347 238 373 238 414 c 0
 238 455 207 476 154 476 c 2
 92 476 l 1
 92 522 l 1
 204 636 l 1
 31 636 l 1
 31 698 l 1
 300 698 l 1
 300 649 l 1
 181 529 l 1
692 416 m 0xaf60
 782 416 840 375 840 308 c 0xafa0
 840 270 816 238 779 221 c 1
 830 203 861 165 861 116 c 0
 861 42 796 -3 693 -3 c 0
 589 -3 524 42 524 115 c 0xaf90
 524 164 557 203 610 221 c 1
 570 239 546 272 546 311 c 0
 546 376 603 416 692 416 c 0xaf60
693 360 m 0
 644 360 616 339 616 304 c 0
 616 268 644 248 693 248 c 0
 741 248 769 268 769 304 c 0
 769 339 741 360 693 360 c 0
692 186 m 0xaf90
 636 186 603 163 603 124 c 0
 603 82 636 59 693 59 c 0
 749 59 782 82 782 123 c 0
 782 163 750 186 692 186 c 0xaf90
EndSplineSet
EndChar

StartChar: fiveeighths
Encoding: 8541 8541 251
Width: 914
Flags: HW
LayerCount: 2
Fore
SplineSet
134 633 m 1xafc8
 134 537 l 1
 149 541 174 543 187 543 c 0
 282 543 343 497 343 424 c 0
 343 339 279 284 180 284 c 0
 128 284 66 303 23 332 c 1
 57 398 l 1
 91 365 133 348 171 348 c 0x7fc8
 223 348 254 374 254 419 c 0
 254 457 223 480 171 480 c 0
 147 480 86 477 57 472 c 1
 57 700 l 1
 325 700 l 1
 325 633 l 1
 134 633 l 1xafc8
130 0 m 1
 645 700 l 1
 755 700 l 1
 241 0 l 1
 130 0 l 1
710 416 m 0xafb0
 800 416 858 375 858 308 c 0xafd0
 858 270 834 238 797 221 c 1
 848 203 879 165 879 116 c 0
 879 42 814 -3 711 -3 c 0
 607 -3 542 42 542 115 c 0xafc8
 542 164 575 203 628 221 c 1
 588 239 564 272 564 311 c 0
 564 376 621 416 710 416 c 0xafb0
711 360 m 0
 662 360 634 339 634 304 c 0
 634 268 662 248 711 248 c 0
 759 248 787 268 787 304 c 0
 787 339 759 360 711 360 c 0
710 186 m 0xafc8
 654 186 621 163 621 124 c 0
 621 82 654 59 711 59 c 0
 767 59 800 82 800 123 c 0
 800 163 768 186 710 186 c 0xafc8
EndSplineSet
EndChar

StartChar: seveneighths
Encoding: 8542 8542 252
Width: 881
Flags: HW
LayerCount: 2
Fore
SplineSet
184 287 m 1xbe40
 95 287 l 1
 260 633 l 1
 106 633 l 1
 106 572 l 1
 32 572 l 1
 32 700 l 1
 351 700 l 1
 351 640 l 1
 184 287 l 1xbe40
97 0 m 1x7d80
 612 700 l 1
 722 700 l 1
 208 0 l 1
 97 0 l 1x7d80
677 416 m 0
 767 416 825 375 825 308 c 0xbe80
 825 270 801 238 764 221 c 1
 815 203 846 165 846 116 c 0
 846 42 781 -3 678 -3 c 0
 574 -3 509 42 509 115 c 0xbe40
 509 164 542 203 595 221 c 1
 555 239 531 272 531 311 c 0
 531 376 588 416 677 416 c 0
678 360 m 0
 629 360 601 339 601 304 c 0
 601 268 629 248 678 248 c 0xbd80
 726 248 754 268 754 304 c 0
 754 339 726 360 678 360 c 0
677 186 m 0xbe40
 621 186 588 163 588 124 c 0
 588 82 621 59 678 59 c 0
 734 59 767 82 767 123 c 0
 767 163 735 186 677 186 c 0xbe40
EndSplineSet
EndChar

StartChar: zero.dnom
Encoding: 65537 -1 253
Width: 447
Flags: HW
LayerCount: 2
Fore
SplineSet
223 415 m 0
 338 415 408 337 408 207 c 0
 408 76 338 -2 223 -2 c 0
 108 -2 38 76 38 207 c 0
 38 337 108 415 223 415 c 0
223 348 m 0
 154 348 115 296 115 207 c 0
 115 117 154 66 223 66 c 0
 292 66 332 117 332 207 c 0
 332 296 292 348 223 348 c 0
EndSplineSet
EndChar

StartChar: one.dnom
Encoding: 65538 -1 254
Width: 262
Flags: HW
LayerCount: 2
Fore
SplineSet
99 0 m 1
 99 345 l 1
 16 305 l 1
 16 373 l 1
 183 443 l 5
 183 0 l 1
 99 0 l 1
EndSplineSet
EndChar

StartChar: two.dnom
Encoding: 65539 -1 255
Width: 383
Flags: HW
LayerCount: 2
Fore
SplineSet
191 416 m 0
 273 416 330 375 330 311 c 0
 330 268 298 221 250 175 c 2
 142 67 l 1
 348 67 l 1
 348 0 l 1
 37 0 l 1
 37 57 l 1
 194 217 l 2
 223 246 243 278 243 300 c 0
 243 329 219 347 178 347 c 0
 142 347 98 327 61 295 c 1
 28 356 l 1
 77 394 133 416 191 416 c 0
EndSplineSet
EndChar

StartChar: three.dnom
Encoding: 65540 -1 256
Width: 355
Flags: HW
LayerCount: 2
Fore
SplineSet
181 243 m 1
 203 240 l 2
 272 233 320 193 320 128 c 0
 320 51 258 -3 161 -3 c 0
 106 -3 48 15 11 43 c 1
 46 108 l 1
 77 77 115 61 155 61 c 0
 207 61 238 87 238 127 c 0
 238 168 207 189 154 189 c 2
 92 189 l 1
 92 235 l 1
 204 349 l 1
 31 349 l 1
 31 412 l 1
 300 412 l 1
 300 363 l 1
 181 243 l 1
EndSplineSet
EndChar

StartChar: four.dnom
Encoding: 65541 -1 257
Width: 394
Flags: HW
LayerCount: 2
Fore
SplineSet
232 159 m 1xa0
 232 413 l 1
 311 413 l 1x60
 311 159 l 1
 372 159 l 1xa0
 372 97 l 1
 311 97 l 1x60
 311 0 l 1
 232 0 l 1xa0
 232 97 l 1
 28 97 l 1
 28 156 l 1x60
 221 413 l 5
 301 413 l 5
 112 159 l 1
 232 159 l 1xa0
EndSplineSet
EndChar

StartChar: five.dnom
Encoding: 65542 -1 258
Width: 377
Flags: HW
LayerCount: 2
Fore
SplineSet
134 347 m 1
 134 250 l 1
 149 254 174 257 187 257 c 0
 282 257 343 210 343 137 c 0
 343 52 279 -3 180 -3 c 0
 128 -3 66 17 23 45 c 1
 57 111 l 1
 91 79 133 61 171 61 c 0
 223 61 254 87 254 132 c 0
 254 171 223 194 171 194 c 0
 147 194 86 191 57 185 c 1
 57 413 l 1
 325 413 l 1
 325 347 l 1
 134 347 l 1
EndSplineSet
EndChar

StartChar: six.dnom
Encoding: 65543 -1 259
Width: 401
Flags: HW
LayerCount: 2
Fore
SplineSet
228 416 m 0
 272 416 323 404 359 384 c 1
 327 324 l 1
 300 341 266 350 232 350 c 0
 155 350 113 297 120 205 c 1
 135 243 176 268 234 268 c 0
 317 268 370 216 370 136 c 0
 370 50 309 -3 216 -3 c 0
 106 -3 38 72 38 199 c 0
 38 330 112 416 228 416 c 0
215 206 m 0
 162 206 131 175 131 134 c 0
 131 101 156 65 212 65 c 0
 261 65 292 91 292 137 c 0
 292 181 263 206 215 206 c 0
EndSplineSet
EndChar

StartChar: seven.dnom
Encoding: 65544 -1 260
Width: 374
Flags: HW
LayerCount: 2
Fore
SplineSet
184 0 m 1
 95 0 l 1
 260 347 l 5
 32 347 l 5
 32 413 l 1
 351 413 l 1
 351 353 l 1
 184 0 l 1
EndSplineSet
EndChar

StartChar: eight.dnom
Encoding: 65545 -1 261
Width: 407
Flags: HW
LayerCount: 2
Fore
SplineSet
203 416 m 0xec
 293 416 351 375 351 308 c 0xf4
 351 270 327 238 290 221 c 1
 341 203 372 165 372 116 c 0
 372 42 307 -3 204 -3 c 0
 100 -3 35 42 35 115 c 0xf2
 35 164 68 203 121 221 c 1
 81 239 57 272 57 311 c 0
 57 376 114 416 203 416 c 0xec
204 360 m 0
 155 360 127 339 127 304 c 0
 127 268 155 248 204 248 c 0
 252 248 280 268 280 304 c 0
 280 339 252 360 204 360 c 0
203 186 m 0xf2
 147 186 114 163 114 124 c 0
 114 82 147 59 204 59 c 0
 260 59 293 82 293 123 c 0
 293 163 261 186 203 186 c 0xf2
EndSplineSet
EndChar

StartChar: nine.dnom
Encoding: 65546 -1 262
Width: 403
Flags: HW
LayerCount: 2
Fore
SplineSet
176 -3 m 0
 131 -3 81 9 44 29 c 1
 77 89 l 1
 103 72 137 63 171 63 c 0
 249 63 291 116 284 208 c 1
 268 170 228 144 170 144 c 0
 87 144 33 197 33 277 c 0
 33 363 94 416 187 416 c 0
 298 416 365 340 365 213 c 0
 365 83 291 -3 176 -3 c 0
188 207 m 0
 242 207 272 238 272 278 c 0
 272 312 248 348 191 348 c 0
 142 348 112 322 112 276 c 0
 112 233 140 207 188 207 c 0
EndSplineSet
EndChar

StartChar: zero.numr
Encoding: 65547 -1 263
Width: 447
Flags: HW
LayerCount: 2
Fore
SplineSet
223 702 m 0
 338 702 408 624 408 494 c 0
 408 363 338 284 223 284 c 0
 108 284 38 363 38 494 c 0
 38 624 108 702 223 702 c 0
223 634 m 0
 154 634 115 583 115 494 c 0
 115 404 154 352 223 352 c 0
 292 352 332 404 332 494 c 0
 332 583 292 634 223 634 c 0
EndSplineSet
Substitution2: "Single Substitution lookup 14 subtable" zero.dnom
Substitution2: "'aalt' Access All Alternates lookup 0 subtable" zero.dnom
EndChar

StartChar: one.numr
Encoding: 65548 -1 264
Width: 262
Flags: HW
LayerCount: 2
Fore
SplineSet
99 287 m 1
 99 631 l 1
 16 601 l 1
 16 670 l 1
 183 730 l 5
 183 287 l 1
 99 287 l 1
EndSplineSet
Substitution2: "Single Substitution lookup 14 subtable" one.dnom
Substitution2: "'aalt' Access All Alternates lookup 0 subtable" one.dnom
EndChar

StartChar: two.numr
Encoding: 65549 -1 265
Width: 383
Flags: HW
LayerCount: 2
Fore
SplineSet
191 703 m 0
 273 703 330 662 330 598 c 0
 330 555 298 508 250 462 c 2
 142 353 l 1
 348 353 l 1
 348 287 l 1
 37 287 l 1
 37 343 l 1
 194 504 l 2
 223 532 243 564 243 586 c 0
 243 616 219 633 178 633 c 0
 142 633 98 613 61 581 c 1
 28 643 l 1
 77 680 133 703 191 703 c 0
EndSplineSet
Substitution2: "Single Substitution lookup 14 subtable" two.dnom
Substitution2: "'aalt' Access All Alternates lookup 0 subtable" two.dnom
EndChar

StartChar: three.numr
Encoding: 65550 -1 266
Width: 355
Flags: HW
LayerCount: 2
Fore
SplineSet
181 529 m 1
 203 527 l 2
 272 520 320 480 320 415 c 0
 320 338 258 283 161 283 c 0
 106 283 48 302 11 329 c 1
 46 395 l 1
 77 364 115 347 155 347 c 0
 207 347 238 373 238 414 c 0
 238 455 207 476 154 476 c 2
 92 476 l 1
 92 522 l 1
 204 636 l 1
 31 636 l 1
 31 698 l 1
 300 698 l 1
 300 649 l 1
 181 529 l 1
EndSplineSet
Substitution2: "Single Substitution lookup 14 subtable" three.dnom
Substitution2: "'aalt' Access All Alternates lookup 0 subtable" three.dnom
EndChar

StartChar: four.numr
Encoding: 65551 -1 267
Width: 394
Flags: HW
LayerCount: 2
Fore
SplineSet
232 446 m 1
 232 700 l 1
 311 700 l 1
 311 446 l 1
 372 446 l 1
 372 384 l 1
 311 384 l 1
 311 287 l 1
 232 287 l 1
 232 384 l 1
 28 384 l 1
 28 443 l 1
 211 700 l 5
 291 700 l 5
 112 446 l 1
 232 446 l 1
EndSplineSet
Substitution2: "Single Substitution lookup 14 subtable" four.dnom
Substitution2: "'aalt' Access All Alternates lookup 0 subtable" four.dnom
EndChar

StartChar: five.numr
Encoding: 65552 -1 268
Width: 377
Flags: HW
LayerCount: 2
Fore
SplineSet
134 633 m 1
 134 537 l 1
 149 541 174 543 187 543 c 0
 282 543 343 497 343 424 c 0
 343 339 279 284 180 284 c 0
 128 284 66 303 23 332 c 1
 57 398 l 1
 91 365 133 348 171 348 c 0
 223 348 254 374 254 419 c 0
 254 457 223 480 171 480 c 0
 147 480 86 477 57 472 c 1
 57 700 l 1
 325 700 l 1
 325 633 l 1
 134 633 l 1
EndSplineSet
Substitution2: "Single Substitution lookup 14 subtable" five.dnom
Substitution2: "'aalt' Access All Alternates lookup 0 subtable" five.dnom
EndChar

StartChar: six.numr
Encoding: 65553 -1 269
Width: 401
Flags: HW
LayerCount: 2
Fore
SplineSet
228 703 m 0
 272 703 323 690 359 671 c 1
 327 610 l 1
 300 627 266 636 232 636 c 0
 155 636 113 583 120 491 c 1
 135 530 176 555 234 555 c 0
 317 555 370 503 370 422 c 0
 370 337 309 283 216 283 c 0
 106 283 38 359 38 486 c 0
 38 617 112 703 228 703 c 0
215 492 m 0
 162 492 131 461 131 421 c 0
 131 387 156 352 212 352 c 0
 261 352 292 378 292 424 c 0
 292 467 263 492 215 492 c 0
EndSplineSet
Substitution2: "Single Substitution lookup 14 subtable" six.dnom
Substitution2: "'aalt' Access All Alternates lookup 0 subtable" six.dnom
EndChar

StartChar: seven.numr
Encoding: 65554 -1 270
Width: 374
Flags: HW
LayerCount: 2
Fore
SplineSet
184 287 m 1
 95 287 l 1
 260 633 l 5
 32 633 l 5
 32 700 l 1
 351 700 l 1
 351 640 l 1
 184 287 l 1
EndSplineSet
Substitution2: "Single Substitution lookup 14 subtable" seven.dnom
Substitution2: "'aalt' Access All Alternates lookup 0 subtable" seven.dnom
EndChar

StartChar: eight.numr
Encoding: 65555 -1 271
Width: 407
Flags: HW
LayerCount: 2
Fore
SplineSet
203 703 m 0xec
 293 703 351 662 351 595 c 0xf4
 351 556 327 525 290 508 c 1
 341 490 372 451 372 403 c 0
 372 329 307 283 204 283 c 0
 100 283 35 329 35 402 c 0xf2
 35 451 68 490 121 508 c 1
 81 526 57 558 57 598 c 0
 57 663 114 703 203 703 c 0xec
204 646 m 0
 155 646 127 626 127 590 c 0
 127 555 155 535 204 535 c 0
 252 535 280 555 280 590 c 0
 280 626 252 646 204 646 c 0
203 473 m 0xf2
 147 473 114 450 114 410 c 0
 114 369 147 346 204 346 c 0
 260 346 293 368 293 410 c 0
 293 450 261 473 203 473 c 0xf2
EndSplineSet
Substitution2: "Single Substitution lookup 14 subtable" eight.dnom
Substitution2: "'aalt' Access All Alternates lookup 0 subtable" eight.dnom
EndChar

StartChar: nine.numr
Encoding: 65556 -1 272
Width: 403
Flags: HW
LayerCount: 2
Fore
SplineSet
176 283 m 0
 131 283 81 296 44 316 c 1
 77 376 l 1
 103 359 137 350 171 350 c 0
 249 350 291 402 284 495 c 1
 268 457 228 431 170 431 c 0
 87 431 33 483 33 564 c 0
 33 650 94 703 187 703 c 0
 298 703 365 627 365 500 c 0
 365 369 291 283 176 283 c 0
188 494 m 0
 242 494 272 525 272 565 c 0
 272 599 248 634 191 634 c 0
 142 634 112 608 112 563 c 0
 112 519 140 494 188 494 c 0
EndSplineSet
Substitution2: "Single Substitution lookup 14 subtable" nine.dnom
Substitution2: "'aalt' Access All Alternates lookup 0 subtable" nine.dnom
EndChar

StartChar: onesuperior
Encoding: 185 185 273
Width: 600
Flags: HW
LayerCount: 2
Fore
SplineSet
99 287 m 1
 99 621 l 5
 16 601 l 5
 16 680 l 1
 183 720 l 1
 183 287 l 1
 99 287 l 1
EndSplineSet
EndChar

StartChar: twosuperior
Encoding: 178 178 274
Width: 600
Flags: HW
LayerCount: 2
Fore
SplineSet
191 703 m 0
 273 703 330 662 330 598 c 0
 330 555 298 508 250 462 c 2
 142 353 l 1
 348 353 l 1
 348 287 l 1
 37 287 l 1
 37 343 l 1
 194 504 l 2
 223 532 243 564 243 586 c 0
 243 616 219 633 178 633 c 0
 142 633 98 613 61 581 c 1
 28 643 l 1
 77 680 133 703 191 703 c 0
EndSplineSet
EndChar

StartChar: threesuperior
Encoding: 179 179 275
Width: 600
Flags: HW
LayerCount: 2
Fore
SplineSet
181 529 m 1
 203 527 l 2
 272 520 320 480 320 415 c 0
 320 338 258 283 161 283 c 0
 106 283 48 302 11 329 c 1
 46 395 l 1
 77 364 115 347 155 347 c 0
 207 347 238 373 238 414 c 0
 238 455 207 476 154 476 c 2
 92 476 l 1
 92 522 l 1
 204 636 l 1
 31 636 l 1
 31 698 l 1
 300 698 l 1
 300 649 l 1
 181 529 l 1
EndSplineSet
EndChar

StartChar: asterisk
Encoding: 42 42 276
Width: 348
Flags: HW
LayerCount: 2
Fore
SplineSet
149 721 m 1
 199 721 l 1
 197 605.795898438 l 1
 295.434570312 665.125976562 l 1
 320.653320312 621.952148438 l 1
 219.297851562 564.5 l 1
 320.653320312 507.047851562 l 1
 295.434570312 463.874023438 l 1
 197 523.204101562 l 1
 199 408 l 1
 149 408 l 1
 151 524.684570312 l 1
 50.384765625 464.080078125 l 1
 25.1650390625 507.25390625 l 1
 126.16796875 564.5 l 1
 25.1650390625 621.74609375 l 1
 50.384765625 664.919921875 l 1
 151 605.315429688 l 1
 149 721 l 1
EndSplineSet
EndChar

StartChar: backslash
Encoding: 92 92 277
Width: 545
Flags: HW
LayerCount: 2
Fore
SplineSet
228 816 m 1
 545 -117 l 1
 447 -117 l 1
 130 816 l 1
 228 816 l 1
EndSplineSet
EndChar

StartChar: bullet
Encoding: 8226 8226 278
Width: 281
Flags: HW
LayerCount: 2
Fore
SplineSet
140 366 m 0
 195 366 235 325 235 268 c 0
 235 211 195 168 140 168 c 0
 86 168 46 211 46 268 c 0
 46 325 86 366 140 366 c 0
EndSplineSet
EndChar

StartChar: colon
Encoding: 58 58 279
Width: 212
Flags: HW
LayerCount: 2
Fore
SplineSet
55 336 m 4
 55 366 79 390 109 390 c 4
 139 390 163 366 163 336 c 4
 163 306 139 282 109 282 c 4
 79 282 55 306 55 336 c 4
55 45 m 4
 55 75 79 99 109 99 c 4
 139 99 163 75 163 45 c 4
 163 15 139 -9 109 -9 c 4
 79 -9 55 15 55 45 c 4
EndSplineSet
EndChar

StartChar: comma
Encoding: 44 44 280
Width: 214
Flags: HW
HStem: -74 176<77.608 97.1338>
VStem: 43 113<0.478944 89.5018>
LayerCount: 2
Fore
SplineSet
55 45 m 4
 55 75 79 99 109 99 c 4
 139 99 163 75 163 45 c 4
 163 33.7342655768 159.231707468 23.0604142934 154.349711143 15.5259027812 c 6
 105 -72 l 5
 51 -72 l 5
 89.9604868076 -5.59523255724 l 5
 69.4592808536 2.04345424633 55 21.7143170165 55 45 c 4
EndSplineSet
EndChar

StartChar: ellipsis
Encoding: 8230 8230 281
Width: 608
Flags: HW
LayerCount: 2
Fore
SplineSet
106 118 m 0
 140 118 166 92 166 55 c 0
 166 18 140 -9 106 -9 c 0
 72 -9 46 18 46 55 c 0
 46 92 72 118 106 118 c 0
304 118 m 0
 338 118 364 92 364 55 c 0
 364 18 338 -9 304 -9 c 0
 270 -9 244 18 244 55 c 0
 244 92 270 118 304 118 c 0
502 118 m 0
 536 118 562 92 562 55 c 0
 562 18 536 -9 502 -9 c 0
 468 -9 442 18 442 55 c 0
 442 92 468 118 502 118 c 0
EndSplineSet
EndChar

StartChar: exclam
Encoding: 33 33 282
Width: 210
Flags: HW
LayerCount: 2
Fore
SplineSet
66 45 m 4xa0
 66 75 90 99 120 99 c 4
 150 99 174 75 174 45 c 4
 174 15 150 -9 120 -9 c 4
 90 -9 66 15 66 45 c 4xa0
164 519 m 5
 146 223 l 5
 93 223 l 5
 75 519 l 5
 75 691 l 5
 164 691 l 5
 164 519 l 5
EndSplineSet
EndChar

StartChar: exclamdown
Encoding: 161 161 283
Width: 209
Flags: HW
LayerCount: 2
Fore
SplineSet
171 486 m 0xa0
 171 455.999023438 147 432 116.999023438 432 c 0
 87 432 62.9990234375 456 62.9990234375 486 c 0
 63 516 87 539.999023438 117 540 c 0
 146.999023438 540 171 516 171 486 c 0xa0
72.9990234375 12 m 1
 91 308 l 1
 144 308 l 1
 161.999023438 12 l 1
 162 -160 l 1
 73 -160 l 1
 72.9990234375 12 l 1
EndSplineSet
EndChar

StartChar: numbersign
Encoding: 35 35 284
Width: 725
Flags: HW
LayerCount: 2
Fore
SplineSet
546 435 m 1
 524 259 l 1
 664 259 l 1
 656 173 l 1
 514 173 l 1
 492 0 l 1
 408 0 l 1
 429 173 l 1
 252 173 l 1
 230 0 l 1
 146 0 l 1
 167 173 l 1
 27 173 l 1
 35 259 l 1
 178 259 l 1
 199 435 l 1
 60 435 l 1
 68 521 l 1
 210 521 l 1
 232 700 l 1
 317 700 l 1
 295 521 l 1
 472 521 l 1
 494 700 l 1
 579 700 l 1
 557 521 l 1
 696 521 l 1
 689 435 l 1
 546 435 l 1
461 435 m 1
 284 435 l 1
 262 259 l 1
 440 259 l 1
 461 435 l 1
EndSplineSet
EndChar

StartChar: period
Encoding: 46 46 285
Width: 218
Flags: HW
LayerCount: 2
Fore
SplineSet
55 45 m 4xe0
 55 75 79 99 109 99 c 4
 139 99 163 75 163 45 c 4
 163 15 139 -9 109 -9 c 4
 79 -9 55 15 55 45 c 4xe0
EndSplineSet
EndChar

StartChar: periodcentered
Encoding: 183 183 286
Width: 212
Flags: HW
HStem: 222 131<50.7237 143.876>
VStem: 35 125<237.109 337.231>
LayerCount: 2
Fore
SplineSet
106 350 m 0
 140 350 166 324 166 287 c 0
 166 251 140 224 106 224 c 0
 72 224 46 251 46 287 c 0
 46 324 72 350 106 350 c 0
EndSplineSet
EndChar

StartChar: question
Encoding: 63 63 287
Width: 443
Flags: HW
LayerCount: 2
Fore
SplineSet
155 45 m 4xe4
 155 75 179 99 209 99 c 4
 239 99 263 75 263 45 c 4
 263 15 239 -9 209 -9 c 4
 179 -9 155 15 155 45 c 4xe4
173 198 m 5
 163 390 l 5
 256 390 l 5
 246 198 l 5
 173 198 l 5
87 495 m 5
 12 495 l 5
 12 626 93 695 212 695 c 4
 328 695 412 607 412 508 c 4
 412 376 316 328 216 328 c 5
 194 390 l 5
 274 390 335 445 335 511 c 4
 335 569 282 622 210 622 c 4
 135 622 90 563 87 495 c 5
EndSplineSet
EndChar

StartChar: questiondown
Encoding: 191 191 288
Width: 443
Flags: HW
LayerCount: 2
Fore
SplineSet
288 486 m 0xe4
 288 456 264 432 234 432 c 0
 204 432 180 456 180 486 c 0
 180 516 204 540 234 540 c 0
 264 540 288 516 288 486 c 0xe4
270 333 m 1
 280 141 l 1
 187 141 l 1
 197 333 l 1
 270 333 l 1
356 36 m 1
 431 36 l 1
 431 -95 350 -164 231 -164 c 0
 115 -164 31 -76 31 23 c 0
 31 155 127 203 227 203 c 1
 249 141 l 1
 169 141 108 86 108 20 c 0
 108 -38 161 -91 233 -91 c 0
 308 -91 353 -32 356 36 c 1
EndSplineSet
EndChar

StartChar: quotedbl
Encoding: 34 34 289
Width: 380
Flags: HW
LayerCount: 2
Fore
SplineSet
292 544 m 1
 254 544 l 1
 237.50390625 647.033203125 220 651.215820312 220 696 c 0
 220 726 244 750 274 750 c 0
 304 750 328 726 328 696 c 0
 328 651.200195312 308.494140625 647.020507812 292 544 c 1
123 544 m 1
 85 544 l 1
 68.50390625 647.033203125 51 651.215820312 51 696 c 0
 51 726 75 750 105 750 c 0
 135 750 159 726 159 696 c 0
 159 651.200195312 139.494140625 647.020507812 123 544 c 1
EndSplineSet
EndChar

StartChar: quotesingle
Encoding: 39 39 290
Width: 208
Flags: HW
LayerCount: 2
Fore
SplineSet
55 695 m 4
 55 725 79 749 109 749 c 4
 139 749 163 725 163 695 c 4
 163 683.734375 159.231445312 673.060546875 154.349609375 665.526367188 c 6
 105 578 l 5
 51 578 l 5
 89.9609375 644.404296875 l 5
 69.458984375 652.04296875 55 671.713867188 55 695 c 4
EndSplineSet
EndChar

StartChar: semicolon
Encoding: 59 59 291
Width: 216
Flags: HW
LayerCount: 2
Fore
SplineSet
55 45 m 0
 55 75 79 99 109 99 c 0
 139 99 163 75 163 45 c 0
 163 33.7342655768 159.231707468 23.0604142934 154.349711143 15.5259027812 c 2
 105 -72 l 1
 51 -72 l 1
 89.9604868076 -5.59523255724 l 1
 69.4592808536 2.04345424633 55 21.7143170165 55 45 c 0
55 336 m 0
 55 366 79 390 109 390 c 0
 139 390 163 366 163 336 c 0
 163 306 139 282 109 282 c 0
 79 282 55 306 55 336 c 0
EndSplineSet
EndChar

StartChar: slash
Encoding: 47 47 292
Width: 331
Flags: HW
LayerCount: 2
Fore
SplineSet
72 -117 m 5
 -16 -117 l 5
 301 816 l 5
 389 816 l 5
 72 -117 l 5
EndSplineSet
Substitution2: "'frac' Diagonal Fractions lookup 8 subtable" fraction
Substitution2: "'aalt' Access All Alternates lookup 0 subtable" fraction
EndChar

StartChar: underscore
Encoding: 95 95 293
Width: 566
Flags: HW
LayerCount: 2
Fore
SplineSet
566 -204 m 1
 0 -204 l 1
 0 -134 l 1
 566 -134 l 1
 566 -204 l 1
EndSplineSet
EndChar

StartChar: braceleft
Encoding: 123 123 294
Width: 329
Flags: HW
LayerCount: 2
Fore
SplineSet
214 580 m 2
 214 416 l 2
 214 352 195 321 144 308 c 1
 195 296 214 265 214 201 c 2
 214 37 l 2
 214 -13 238 -34 309 -34 c 1
 309 -126 l 1
 266 -126 l 2
 154 -126 110 -91 110 2 c 2
 110 208 l 2
 110 246 97 261 67 261 c 2
 36 261 l 1
 36 356 l 1
 67 356 l 2
 97 356 110 371 110 409 c 2
 110 616 l 2
 110 708 154 743 266 743 c 2
 309 743 l 1
 309 651 l 1
 238 651 214 630 214 580 c 2
EndSplineSet
EndChar

StartChar: braceright
Encoding: 125 125 295
Width: 402
Flags: HW
LayerCount: 2
Fore
SplineSet
402 356 m 1
 402 261 l 1
 371 261 l 2
 341 261 328 246 328 208 c 2
 328 2 l 2
 328 -91 284 -126 172 -126 c 2
 129 -126 l 1
 129 -34 l 1
 200 -34 224 -13 224 37 c 2
 224 201 l 2
 224 265 243 296 294 309 c 1
 243 321 224 352 224 416 c 2
 224 580 l 2
 224 630 200 651 129 651 c 1
 129 743 l 1
 172 743 l 2
 284 743 328 708 328 616 c 2
 328 409 l 2
 328 371 341 356 371 356 c 2
 402 356 l 1
EndSplineSet
EndChar

StartChar: bracketleft
Encoding: 91 91 296
Width: 345
Flags: HW
LayerCount: 2
Fore
SplineSet
319 680 m 1
 165 680 l 1
 165 -62 l 5
 319 -62 l 5
 319 -124 l 1
 92 -124 l 1
 92 742 l 1
 319 742 l 1
 319 680 l 1
EndSplineSet
EndChar

StartChar: bracketright
Encoding: 93 93 297
Width: 473
Flags: HW
LayerCount: 2
Fore
SplineSet
381 742 m 1
 381 -124 l 1
 154 -124 l 1
 154 -62 l 5
 308 -62 l 5
 308 680 l 1
 154 680 l 1
 154 742 l 1
 381 742 l 1
EndSplineSet
EndChar

StartChar: parenleft
Encoding: 40 40 298
Width: 319
Flags: HW
LayerCount: 2
Fore
SplineSet
209 742 m 1
 288 742 l 1
 215 628 170 475 170 309 c 0
 170 143 215 -10 288 -124 c 1
 209 -124 l 1
 130 -10 92 143 92 309 c 0
 92 475 130 628 209 742 c 1
EndSplineSet
EndChar

StartChar: parenright
Encoding: 41 41 299
Width: 345
Flags: HW
LayerCount: 2
Fore
SplineSet
134 742 m 1
 213 742 l 1
 292 628 330 475 330 309 c 0
 330 143 292 -10 213 -124 c 5
 134 -124 l 1
 207 -10 252 143 252 309 c 0
 252 475 207 628 134 742 c 1
EndSplineSet
EndChar

StartChar: emdash
Encoding: 8212 8212 300
Width: 691
Flags: HW
LayerCount: 2
Fore
SplineSet
691 225 m 1
 0 225 l 1
 0 304 l 1
 691 304 l 1
 691 225 l 1
EndSplineSet
EndChar

StartChar: endash
Encoding: 8211 8211 301
Width: 405
Flags: HW
LayerCount: 2
Fore
SplineSet
405 225 m 1
 0 225 l 1
 0 304 l 1
 405 304 l 1
 405 225 l 1
EndSplineSet
EndChar

StartChar: hyphen
Encoding: 45 45 302
Width: 368
Flags: HW
LayerCount: 2
Fore
SplineSet
307 265 m 1
 61 265 l 1
 61 344 l 1
 307 344 l 1
 307 265 l 1
EndSplineSet
EndChar

StartChar: softhyphen
Encoding: 173 173 303
Width: 368
Flags: HW
LayerCount: 2
Fore
SplineSet
307 265 m 1
 61 265 l 1
 61 344 l 1
 307 344 l 1
 307 265 l 1
EndSplineSet
EndChar

StartChar: guillemotleft
Encoding: 171 171 304
Width: 456
Flags: HW
LayerCount: 2
Fore
SplineSet
128 260 m 1
 235 86 l 1
 139 86 l 1
 23 260 l 1
 139 434 l 1
 235 434 l 1
 128 260 l 1
308 260 m 1
 415 86 l 1
 319 86 l 1
 203 260 l 1
 319 434 l 1
 415 434 l 1
 308 260 l 1
EndSplineSet
EndChar

StartChar: guillemotright
Encoding: 187 187 305
Width: 468
Flags: HW
LayerCount: 2
Fore
SplineSet
183 261 m 1
 76 435 l 1
 172 435 l 1
 288 261 l 1
 172 87 l 1
 76 87 l 1
 183 261 l 1
363 261 m 1
 256 435 l 1
 352 435 l 1
 468 261 l 1
 352 87 l 1
 256 87 l 1
 363 261 l 1
EndSplineSet
EndChar

StartChar: guilsinglleft
Encoding: 8249 8249 306
Width: 498
Flags: HW
LayerCount: 2
Fore
SplineSet
128 260 m 1
 235 86 l 1
 139 86 l 1
 23 260 l 1
 139 434 l 1
 235 434 l 1
 128 260 l 1
EndSplineSet
EndChar

StartChar: guilsinglright
Encoding: 8250 8250 307
Width: 498
Flags: HW
LayerCount: 2
Fore
SplineSet
183 261 m 1
 76 435 l 1
 172 435 l 1
 288 261 l 1
 172 86 l 1
 76 86 l 1
 183 261 l 1
EndSplineSet
EndChar

StartChar: quotedblbase
Encoding: 8222 8222 308
Width: 363
Flags: HW
LayerCount: 2
Fore
SplineSet
194 35 m 0
 194 65 218 89 248 89 c 0
 278 89 302 65 302 35 c 0
 302 23.734375 298.231445312 13.060546875 293.349609375 5.5263671875 c 2
 244 -82 l 1
 190 -82 l 1
 228.9609375 -15.595703125 l 1
 208.458984375 -7.95703125 194 11.7138671875 194 35 c 0
45 35 m 0
 45 65 69 89 99 89 c 0
 129 89 153 65 153 35 c 0
 153 23.734375 149.231445312 13.060546875 144.349609375 5.5263671875 c 2
 95 -82 l 1
 41 -82 l 1
 79.9609375 -15.595703125 l 1
 59.458984375 -7.95703125 45 11.7138671875 45 35 c 0
EndSplineSet
EndChar

StartChar: quotedblleft
Encoding: 8220 8220 309
Width: 380
Flags: HW
LayerCount: 2
Fore
SplineSet
310 589 m 0x38
 310 559 286 535 256 535 c 0
 226 535 202 559 202 589 c 0
 202 600.265625 205.768554688 610.939453125 210.650390625 618.473632812 c 2
 260 706 l 1x98
 314 706 l 1
 275.0390625 639.595703125 l 1
 295.541015625 631.95703125 310 612.286132812 310 589 c 0x38
161 589 m 0
 161 559 137 535 107 535 c 0
 77 535 53 559 53 589 c 0
 53 600.265625 56.7685546875 610.939453125 61.650390625 618.473632812 c 2
 111 706 l 1x98
 165 706 l 1x38
 126.0390625 639.595703125 l 1
 146.541015625 631.95703125 161 612.286132812 161 589 c 0
EndSplineSet
EndChar

StartChar: quotedblright
Encoding: 8221 8221 310
Width: 380
Flags: HW
LayerCount: 2
Fore
SplineSet
204 647 m 4x70
 204 677 228 701 258 701 c 4
 288 701 312 677 312 647 c 4
 312 635.734375 308.231445312 625.060546875 303.349609375 617.526367188 c 6
 254 530 l 5
 200 530 l 5
 238.9609375 596.404296875 l 5
 218.458984375 604.04296875 204 623.713867188 204 647 c 4x70
55 647 m 4
 55 677 79 701 109 701 c 4xb0
 139 701 163 677 163 647 c 4
 163 635.734375 159.231445312 625.060546875 154.349609375 617.526367188 c 6
 105 530 l 5
 51 530 l 5
 89.9609375 596.404296875 l 5
 69.458984375 604.04296875 55 623.713867188 55 647 c 4
EndSplineSet
EndChar

StartChar: quoteleft
Encoding: 8216 8216 311
Width: 350
Flags: HW
LayerCount: 2
Fore
SplineSet
160 589 m 4xa0
 160 559 136 535 106 535 c 4
 76 535 52 559 52 589 c 4
 52 600.265625 55.7685546875 610.939453125 60.650390625 618.473632812 c 6
 110 706 l 5
 164 706 l 5
 125.0390625 639.595703125 l 5
 145.541015625 631.95703125 160 612.286132812 160 589 c 4xa0
EndSplineSet
EndChar

StartChar: quoteright
Encoding: 8217 8217 312
Width: 208
Flags: HW
LayerCount: 2
Fore
SplineSet
55 646 m 4
 55 676 79 700 109 700 c 4
 139 700 163 676 163 646 c 4
 163 634.734375 159.231445312 624.060546875 154.349609375 616.526367188 c 6
 105 529 l 5
 51 529 l 5
 89.9609375 595.404296875 l 5
 69.458984375 603.04296875 55 622.713867188 55 646 c 4
EndSplineSet
EndChar

StartChar: quotesinglbase
Encoding: 8218 8218 313
Width: 214
Flags: HW
LayerCount: 2
Fore
SplineSet
55 67 m 0
 55 97 79 121 109 121 c 0
 139 121 163 97 163 67 c 0
 163 55.734375 159.231445312 45.060546875 154.349609375 37.5263671875 c 2
 105 -50 l 1
 51 -50 l 1
 89.9609375 16.404296875 l 1
 69.458984375 24.04296875 55 43.7138671875 55 67 c 0
EndSplineSet
EndChar

StartChar: florin
Encoding: 402 402 316
Width: 372
Flags: HW
LayerCount: 2
Fore
SplineSet
334 655 m 0
 285 656 248 622 241 567 c 2
 228 464 l 1
 368 464 l 1
 359 384 l 1
 219 384 l 1
 168 -30 l 2
 155 -134 92 -200 -10 -199 c 0
 -48 -198 -92 -183 -119 -161 c 1
 -87 -76 l 1
 -69 -92 -43 -102 -22 -103 c 0
 25 -104 49 -68 56 -13 c 2
 105 384 l 1
 36 384 l 1
 45 464 l 1
 114 464 l 1
 129 583 l 2
 142 687 216 753 318 752 c 0
 364 751 414 736 446 714 c 1
 405 629 l 1
 385 645 357 655 334 655 c 0
EndSplineSet
EndChar

StartChar: Euro
Encoding: 8364 8364 317
Width: 790
Flags: HW
LayerCount: 2
Fore
SplineSet
693 188 m 1
 762 110 l 1
 692 40 591 -5 491 -5 c 0
 328 -5 194 93 146 235 c 1
 37 235 l 1
 37 299 l 1
 131 299 l 1
 128 316 127 333 127 351 c 0
 127 369 128 387 131 404 c 1
 37 404 l 1
 37 468 l 1
 147 468 l 1
 196 607 331 703 496 703 c 0
 595 703 694 662 761 595 c 1
 693 509 l 1
 641 564 569 598 497 598 c 0
 401 598 318 546 276 468 c 1
 527 468 l 1
 527 404 l 1
 252 404 l 1
 249 387 247 370 247 352 c 0
 247 334 249 316 253 299 c 1
 527 299 l 1
 527 235 l 1
 276 235 l 1
 318 157 401 105 497 105 c 0
 567 105 639 137 693 188 c 1
EndSplineSet
EndChar

StartChar: cent
Encoding: 162 162 318
Width: 564
Flags: HW
AnchorPoint: "Anchor-0" 288 0 basechar 0
LayerCount: 2
Fore
SplineSet
275 683 m 1
 334 683 l 1
 334 -145 l 1
 275 -145 l 1
 275 683 l 1
530.65625 94.4169921875 m 1
 480.803710938 32.3515625 402.848632812 -6 312 -6 c 0
 157 -6 35 110 35 265 c 0
 35 420 154 536 312 536 c 0
 397.264648438 536 471.171875 502.21875 521.1484375 446.755859375 c 1
 466.126953125 389.0703125 l 1
 430 430 369.341796875 460 312 460 c 0
 203 460 116 375 116 265 c 0
 116 155 203 70 312 70 c 0
 372.451171875 70 441 105 474.6328125 145.8828125 c 1
 530.65625 94.4169921875 l 1
EndSplineSet
EndChar

StartChar: currency
Encoding: 164 164 319
Width: 711
Flags: HW
LayerCount: 2
Fore
SplineSet
625 319 m 0xdc
 625 262 606 210 574 167 c 1
 676 65 l 1
 611 -4 l 1
 505 101 l 1
 462 73 410 57 355 57 c 0
 300 57 249 73 206 101 c 1
 100 -4 l 1
 35 65 l 1
 137 167 l 1
 106 210 87 263 87 319 c 0
 87 375 105 427 135 470 c 1
 35 570 l 1
 100 639 l 1
 203 536 l 1
 247 566 299 583 355 583 c 0xec
 412 583 464 566 508 537 c 1
 611 639 l 1
 676 570 l 1
 576 470 l 1
 607 427 625 375 625 319 c 0xdc
355 155 m 0
 454 155 534 229 534 319 c 0
 534 411 454 486 355 486 c 0xec
 258 486 179 411 179 319 c 0
 179 229 258 155 355 155 c 0
EndSplineSet
EndChar

StartChar: dollar
Encoding: 36 36 320
Width: 657
Flags: HW
AnchorPoint: "Anchor-0" 337 -5 basechar 0
LayerCount: 2
Fore
SplineSet
343 705 m 0x0e
 434 705 523 671 588 628 c 1
 549 556 l 1
 473 602 407 626 334 626 c 0
 245 626 171 589 171 512 c 0
 171 432.00390625 272.551757812 405.125 353 385.715820312 c 0
 460.823242188 359.702148438 597 337 597 188 c 0
 597 73 487 -9 333 -9 c 0
 223 -9 119 41 47 107 c 1
 95 174 l 1
 167 111 251 70 326 70 c 0
 433 70 515 112 515 191 c 0
 515 270.358398438 407.955078125 297.96875 327 316.731445312 c 0
 222.353515625 340.985351562 93 371.91796875 93 515 c 0
 93 620 191 705 343 705 c 0x0e
300 -140 m 1
 300 835 l 1
 378 835 l 5
 378 -140 l 5
 300 -140 l 1
EndSplineSet
EndChar

StartChar: sterling
Encoding: 163 163 321
Width: 547
Flags: HW
LayerCount: 2
Fore
SplineSet
238 96 m 1
 518 96 l 1
 518 0 l 1
 37 0 l 1
 37 96 l 1
 120 96 l 1
 120 298 l 1
 37 298 l 1
 37 382 l 1
 120 382 l 1
 120 483 l 2
 120 625 197 705 333 705 c 0
 409 705 480 673 531 615 c 1
 484 523 l 1
 442 573 394 599 345 599 c 0
 276 599 238 559 238 480 c 2
 238 382 l 1
 414 382 l 1
 414 298 l 1
 238 298 l 1
 238 96 l 1
EndSplineSet
EndChar

StartChar: yen
Encoding: 165 165 322
Width: 628
Flags: HW
LayerCount: 2
Fore
SplineSet
428 322 m 1x78
 575 322 l 1
 575 272 l 1
 401 272 l 1
 380 234 l 1
 380 189 l 1
 575 189 l 1
 575 139 l 1
 380 139 l 1x78
 380 0 l 1
 262 0 l 1xb8
 262 139 l 1
 75 139 l 1
 75 189 l 1
 262 189 l 1
 262 229 l 1
 238 272 l 1
 75 272 l 1
 75 322 l 1
 211 322 l 1
 1 700 l 1
 120 700 l 1
 320 359 l 1
 516 700 l 1
 636 700 l 1
 428 322 l 1x78
EndSplineSet
EndChar

StartChar: approxequal
Encoding: 8776 8776 323
Width: 498
Flags: HW
LayerCount: 2
Fore
SplineSet
163 511 m 0x9c
 227 511 274 454 315 454 c 0
 340 454 354 472 354 505 c 1
 433 505 l 1
 433 412 400 365 336 365 c 0xac
 268 365 226 422 185 422 c 0
 159 422 146 404 146 371 c 1
 66 371 l 1
 66 464 99 511 163 511 c 0x9c
163 291 m 0x6c
 227 291 274 234 315 234 c 0
 340 234 354 251 354 284 c 1
 433 284 l 1
 433 191 400 144 336 144 c 0xac
 268 144 226 201 185 201 c 0
 159 201 146 184 146 151 c 1
 66 151 l 1
 66 244 99 291 163 291 c 0x6c
EndSplineSet
EndChar

StartChar: asciitilde
Encoding: 126 126 324
Width: 498
Flags: HW
LayerCount: 2
Fore
SplineSet
163 395 m 0x70
 227 395 274 338 315 338 c 0
 340 338 354 355 354 388 c 1
 433 388 l 1
 433 295 400 248 336 248 c 0xb0
 268 248 226 305 185 305 c 0
 159 305 146 288 146 255 c 1
 66 255 l 1
 66 348 99 395 163 395 c 0x70
EndSplineSet
EndChar

StartChar: bulletoperator
Encoding: 8729 8729 325
Width: 212
Flags: HW
LayerCount: 2
Fore
SplineSet
140 366 m 0
 195 366 235 325 235 268 c 0
 235 211 195 168 140 168 c 0
 86 168 46 211 46 268 c 0
 46 325 86 366 140 366 c 0
EndSplineSet
EndChar

StartChar: divide
Encoding: 247 247 326
Width: 498
Flags: HW
LayerCount: 2
Fore
SplineSet
243 572 m 0
 278 572 304 545 304 509 c 0
 304 472 278 445 243 445 c 0
 208 445 183 472 183 509 c 0
 183 545 208 572 243 572 c 0
463 285 m 1
 35 285 l 1
 35 364 l 1
 463 364 l 1
 463 285 l 1
243 217 m 0
 278 217 304 190 304 154 c 0
 304 117 278 90 243 90 c 0
 208 90 183 117 183 154 c 0
 183 190 208 217 243 217 c 0
EndSplineSet
EndChar

StartChar: divisionslash
Encoding: 8725 8725 327
Width: 331
Flags: HW
LayerCount: 2
Fore
SplineSet
77 -117 m 1
 -21 -117 l 1
 296 816 l 1
 394 816 l 1
 77 -117 l 1
EndSplineSet
EndChar

StartChar: equal
Encoding: 61 61 328
Width: 498
Flags: HW
LayerCount: 2
Fore
SplineSet
463 390 m 1
 35 390 l 1
 35 469 l 1
 463 469 l 1
 463 390 l 1
463 180 m 1
 35 180 l 1
 35 259 l 1
 463 259 l 1
 463 180 l 1
EndSplineSet
EndChar

StartChar: greater
Encoding: 62 62 329
Width: 498
Flags: HW
LayerCount: 2
Fore
SplineSet
35 183 m 1
 386 330 l 1
 35 478 l 1
 35 567 l 1
 463 381 l 1
 463 280 l 1
 35 94 l 1
 35 183 l 1
EndSplineSet
EndChar

StartChar: greaterequal
Encoding: 8805 8805 330
Width: 498
Flags: HW
LayerCount: 2
Fore
SplineSet
35 252 m 1
 386 397 l 1
 35 541 l 1
 35 628 l 1
 463 446 l 1
 463 347 l 1
 35 166 l 1
 35 252 l 1
463 20 m 1
 35 20 l 1
 35 100 l 1
 463 100 l 1
 463 20 l 1
EndSplineSet
EndChar

StartChar: infinity
Encoding: 8734 8734 331
Width: 875
Flags: HW
LayerCount: 2
Fore
SplineSet
647 503 m 0
 758 503 840 417 840 302 c 0
 840 186 758 100 647 100 c 0
 537 100 483 164 438 234 c 1
 394 164 340 100 228 100 c 0
 117 100 35 186 35 301 c 0
 35 417 117 503 228 503 c 0
 338 503 392 439 437 369 c 1
 481 439 535 503 647 503 c 0
647 185 m 0
 712 185 760 234 760 302 c 0
 760 370 712 419 647 419 c 0
 561 419 517 365 478 301 c 1
 518 238 562 185 647 185 c 0
228 184 m 0
 313 184 357 238 397 302 c 1
 357 365 313 418 228 418 c 0
 163 418 115 369 115 301 c 0
 115 233 163 184 228 184 c 0
EndSplineSet
EndChar

StartChar: integral
Encoding: 8747 8747 332
Width: 342
Flags: HW
LayerCount: 2
Fore
SplineSet
346 823 m 1x68
 332 743 l 1
 314 751 299 754 282 754 c 0
 227 754 206 722 206 634 c 0x70
 206 516 228 219 228 90 c 0
 228 -67 186 -128 77 -128 c 0xa8
 42 -128 18 -122 -8 -107 c 1x68
 7 -27 l 1
 29 -38 44 -43 64 -43 c 0
 120 -43 142 -8 142 82 c 0xa8
 142 211 119 504 119 624 c 0x70
 119 781 161 842 269 842 c 0
 295 842 317 836 346 823 c 1x68
EndSplineSet
EndChar

StartChar: less
Encoding: 60 60 333
Width: 498
Flags: HW
LayerCount: 2
Fore
SplineSet
463 473 m 1
 112 326 l 1
 463 178 l 1
 463 89 l 1
 35 275 l 1
 35 376 l 1
 463 562 l 1
 463 473 l 1
EndSplineSet
EndChar

StartChar: lessequal
Encoding: 8804 8804 334
Width: 498
Flags: HW
LayerCount: 2
Fore
SplineSet
463 536 m 1
 112 392 l 1
 463 248 l 1
 463 161 l 1
 35 342 l 1
 35 441 l 1
 463 623 l 1
 463 536 l 1
463 20 m 1
 35 20 l 1
 35 100 l 1
 463 100 l 1
 463 20 l 1
EndSplineSet
EndChar

StartChar: logicalnot
Encoding: 172 172 335
Width: 562
Flags: HW
LayerCount: 2
Fore
SplineSet
486 404 m 1
 486 145 l 1
 402 145 l 1
 402 325 l 1
 35 325 l 1
 35 404 l 1
 486 404 l 1
EndSplineSet
EndChar

StartChar: minus
Encoding: 8722 8722 336
Width: 368
Flags: HW
LayerCount: 2
Fore
SplineSet
463 285 m 1
 35 285 l 1
 35 364 l 1
 463 364 l 1
 463 285 l 1
EndSplineSet
EndChar

StartChar: multiply
Encoding: 215 215 337
Width: 498
Flags: HW
LayerCount: 2
Fore
SplineSet
304 325 m 1
 427 201 l 1
 374 145 l 1
 250 270 l 1
 125 145 l 1
 72 201 l 1
 195 325 l 1
 72 448 l 1
 125 504 l 1
 250 379 l 1
 374 504 l 1
 427 448 l 1
 304 325 l 1
EndSplineSet
EndChar

StartChar: notequal
Encoding: 8800 8800 338
Width: 498
Flags: HW
LayerCount: 2
Fore
SplineSet
308 390 m 1
 267 259 l 1
 463 259 l 1
 463 180 l 1
 242 180 l 1
 195 31 l 1
 107 31 l 1
 154 180 l 1
 35 180 l 1
 35 259 l 1
 179 259 l 1
 220 390 l 1
 35 390 l 1
 35 469 l 1
 245 469 l 1
 291 613 l 1
 379 613 l 1
 333 469 l 1
 463 469 l 1
 463 390 l 1
 308 390 l 1
EndSplineSet
EndChar

StartChar: partialdiff
Encoding: 8706 8706 339
Width: 615
Flags: HW
LayerCount: 2
Fore
SplineSet
270 705 m 0
 452 705 567 561 567 342 c 0
 567 123 460 -5 282 -5 c 0
 134 -5 36 85 36 229 c 0
 36 365 124 453 262 453 c 0
 360 453 427 405 452 332 c 1
 464 505 394 606 262 606 c 0
 205 606 148 587 102 552 c 1
 56 642 l 1
 116 680 198 705 270 705 c 0
283 359 m 0
 198 359 146 312 146 231 c 0
 146 146 203 97 288 97 c 0
 389 97 433 166 433 226 c 0
 433 300 378 359 283 359 c 0
EndSplineSet
EndChar

StartChar: percent
Encoding: 37 37 340
Width: 993
Flags: HW
LayerCount: 2
Fore
SplineSet
626 204 m 0x9f
 626 120 687 59 770 59 c 0
 853 59 914 120 914 204 c 0
 914 287 852 350 770 350 c 0
 688 350 626 286 626 204 c 0x9f
563 204 m 0
 563 322 650 410 770 410 c 0
 890 410 977 322 977 204 c 0
 977 86 890 -2 770 -2 c 0
 652 -2 563 86 563 204 c 0
79 493 m 0
 79 409 140 348 223 348 c 0xbf
 306 348 367 409 367 493 c 0
 367 576 305 639 223 639 c 0
 141 639 79 575 79 493 c 0
16 493 m 0
 16 611 103 699 223 699 c 0
 343 699 430 611 430 493 c 0
 430 375 343 287 223 287 c 0
 105 287 16 375 16 493 c 0
180 0 m 1
 695 700 l 1
 795 700 l 1
 281 0 l 1
 180 0 l 1
EndSplineSet
EndChar

StartChar: perthousand
Encoding: 8240 8240 341
Width: 1420
Flags: HW
LayerCount: 2
Fore
SplineSet
223 702 m 0xbfc0
 338 702 408 624 408 494 c 0
 408 363 338 284 223 284 c 0x4c
 108 284 38 363 38 494 c 0
 38 624 108 702 223 702 c 0xbfc0
170 0 m 1
 685 700 l 1
 795 700 l 1
 281 0 l 1
 170 0 l 1
223 634 m 0
 154 634 115 583 115 494 c 0
 115 404 154 352 223 352 c 0x4c
 292 352 332 404 332 494 c 0
 332 583 292 634 223 634 c 0
750 415 m 0
 865 415 935 337 935 207 c 0
 935 76 865 -2 750 -2 c 0
 635 -2 565 76 565 207 c 0
 565 337 635 415 750 415 c 0
1196 415 m 0
 1311 415 1381 337 1381 207 c 0
 1381 76 1311 -2 1196 -2 c 0
 1081 -2 1011 76 1011 207 c 0
 1011 337 1081 415 1196 415 c 0
750 348 m 0
 681 348 642 296 642 207 c 0
 642 117 681 66 750 66 c 0
 819 66 859 117 859 207 c 0
 859 296 819 348 750 348 c 0
1196 348 m 0
 1127 348 1088 296 1088 207 c 0
 1088 117 1127 66 1196 66 c 0
 1265 66 1305 117 1305 207 c 0
 1305 296 1265 348 1196 348 c 0
EndSplineSet
EndChar

StartChar: plus
Encoding: 43 43 342
Width: 498
Flags: HW
LayerCount: 2
Fore
SplineSet
463 285 m 1
 287 285 l 1
 287 110 l 1
 212 110 l 1
 212 285 l 1
 35 285 l 1
 35 364 l 1
 212 364 l 1
 212 539 l 1
 287 539 l 1
 287 364 l 1
 463 364 l 1
 463 285 l 1
EndSplineSet
EndChar

StartChar: plusminus
Encoding: 177 177 343
Width: 498
Flags: HW
LayerCount: 2
Fore
SplineSet
463 430 m 1
 463 352 l 1
 287 352 l 1
 287 181 l 1
 212 181 l 1
 212 352 l 1
 35 352 l 1
 35 430 l 1
 212 430 l 1
 212 601 l 1
 287 601 l 1
 287 430 l 1
 463 430 l 1
35 100 m 1
 463 100 l 1
 463 20 l 1
 35 20 l 1
 35 100 l 1
EndSplineSet
EndChar

StartChar: product
Encoding: 8719 8719 344
Width: 750
Flags: HW
LayerCount: 2
Fore
SplineSet
658 -194 m 1
 543 -194 l 1
 543 644 l 1
 207 644 l 1
 207 -194 l 1
 92 -194 l 1
 92 742 l 1
 658 742 l 1
 658 -194 l 1
EndSplineSet
EndChar

StartChar: radical
Encoding: 8730 8730 345
Width: 689
Flags: HW
LayerCount: 2
Fore
SplineSet
213 399 m 1
 347 -29 l 1
 576 750 l 1
 686 750 l 1
 408 -154 l 1
 285 -154 l 1
 134 302 l 1
 11 302 l 1
 11 399 l 1
 213 399 l 1
EndSplineSet
EndChar

StartChar: summation
Encoding: 8721 8721 346
Width: 611
Flags: HW
LayerCount: 2
Fore
SplineSet
598 637 m 1
 176 637 l 1
 453 307 l 1
 174 -32 l 1
 608 -32 l 1
 608 -138 l 1
 32 -138 l 1
 32 -47 l 1
 326 306 l 1
 40 651 l 1
 40 743 l 1
 598 743 l 1
 598 637 l 1
EndSplineSet
EndChar

StartChar: lozenge
Encoding: 9674 9674 347
Width: 536
Flags: HW
LayerCount: 2
Fore
SplineSet
501 330 m 1
 267 -18 l 1
 35 330 l 1
 268 676 l 1
 501 330 l 1
141 330 m 1
 267 145 l 1
 395 330 l 1
 268 515 l 1
 141 330 l 1
EndSplineSet
EndChar

StartChar: ampersand
Encoding: 38 38 348
Width: 663
Flags: HW
LayerCount: 2
Fore
SplineSet
281 72 m 0xc8
 332 72 395 100 439 143 c 1
 369 213 283 286 239 337 c 1
 191 299 137 258 137 196 c 0
 137 116 209 72 281 72 c 0xc8
207 553 m 0
 207 516 229 474 264 426 c 1
 329 471 420 513 420 568 c 0
 420 619 375 656 323 656 c 0
 264 656 207 619 207 553 c 0
607 1 m 1
 498 98 l 1
 436 39 354 -5 277 -5 c 0
 152 -5 57 78 57 191 c 0xe8
 57 290 126 348 195 395 c 5
 149 457 131 507 131 557 c 0
 131 650 214 730 323 730 c 0
 428 730 497 659 497 573 c 0
 497 477 394 423 307 367 c 1
 345 324 422 261 482 202 c 1
 506 238 532 278 550 326 c 1
 615 285 l 1
 594 235 570 193 542 155 c 1
 656 50 l 1
 607 1 l 1
EndSplineSet
EndChar

StartChar: asciicircum
Encoding: 94 94 349
Width: 538
Flags: HW
LayerCount: 2
Fore
SplineSet
416 132 m 1
 269 455 l 1
 121 132 l 1
 32 132 l 1
 218 526 l 1
 319 526 l 1
 505 132 l 1
 416 132 l 1
EndSplineSet
EndChar

StartChar: at
Encoding: 64 64 350
Width: 974
Flags: HW
LayerCount: 2
Fore
SplineSet
493 702 m 0xdf80
 750 702 940 521 940 272 c 0
 940 121 861 23 749 23 c 0
 688 23 644 48 633 104 c 1xdf80
 646 124 l 1
 605 64 528 35 459 35 c 0xbf80
 337 35 228 129 228 269 c 0
 228 401 315 508 448 508 c 0
 536 508 611 454 621 433 c 1
 621 498 l 1
 704 498 l 1
 704 149 l 2
 704 111 733 95 760 95 c 0
 809 95 854 166 854 269 c 0
 854 468 715 621 493 621 c 0
 285 621 120 465 120 267 c 0
 120 72 276 -70 480 -70 c 0
 539 -70 617 -51 673 -11 c 1
 714 -84 l 1
 655 -126 556 -153 480 -153 c 0
 226 -153 34 26 34 267 c 0
 34 513 235 702 493 702 c 0xdf80
459 433 m 4
 375 433 315 368 315 274 c 4
 315 177 375 108 461 108 c 4xbf80
 550 108 614 175 614 273 c 0
 614 368 548 433 459 433 c 4
EndSplineSet
EndChar

StartChar: bar
Encoding: 124 124 351
Width: 269
Flags: HW
LayerCount: 2
Fore
SplineSet
178 -116 m 1
 91 -116 l 1
 91 810 l 1
 178 810 l 1
 178 -116 l 1
EndSplineSet
EndChar

StartChar: brokenbar
Encoding: 166 166 352
Width: 269
Flags: HW
LayerCount: 2
Fore
SplineSet
178 464 m 1
 91 464 l 1
 91 810 l 1
 178 810 l 1
 178 464 l 1
178 -116 m 1
 91 -116 l 1
 91 230 l 1
 178 230 l 1
 178 -116 l 1
EndSplineSet
EndChar

StartChar: copyright
Encoding: 169 169 353
Width: 745
Flags: HW
LayerCount: 2
Fore
SplineSet
373 689 m 0
 563 689 711 536 711 350 c 0
 711 165 562 9 371 9 c 0
 181 9 34 163 34 348 c 0
 34 533 182 689 373 689 c 0
373 629 m 0
 213 629 91 501 91 348 c 0
 91 195 212 69 371 69 c 0
 531 69 654 197 654 350 c 0
 654 503 532 629 373 629 c 0
378 520 m 0
 426 520 475 500 509 467 c 1
 474 425 l 1
 448 451 414 467 379 467 c 0
 311 467 258 415 258 350 c 0
 258 284 311 231 379 231 c 0
 412 231 448 246 474 271 c 1
 509 232 l 1
 474 198 425 176 376 176 c 0
 276 176 198 251 198 349 c 0
 198 446 277 520 378 520 c 0
EndSplineSet
EndChar

StartChar: dagger
Encoding: 8224 8224 354
Width: 536
Flags: HW
LayerCount: 2
Fore
SplineSet
321 486 m 1
 521 486 l 1
 521 380 l 1
 321 380 l 1
 321 -190 l 1
 212 -190 l 1
 212 380 l 1
 15 380 l 1
 15 486 l 1
 212 486 l 1
 212 699 l 1
 321 699 l 1
 321 486 l 1
EndSplineSet
EndChar

StartChar: daggerdbl
Encoding: 8225 8225 355
Width: 536
Flags: HW
LayerCount: 2
Fore
SplineSet
321 380 m 1
 321 149 l 1
 521 149 l 1
 521 44 l 1
 321 44 l 1
 321 -190 l 1
 212 -190 l 1
 212 44 l 1
 15 44 l 1
 15 149 l 1
 212 149 l 1
 212 380 l 1
 15 380 l 1
 15 486 l 1
 212 486 l 1
 212 699 l 1
 321 699 l 1
 321 486 l 1
 521 486 l 1
 521 380 l 1
 321 380 l 1
EndSplineSet
EndChar

StartChar: degree
Encoding: 176 176 356
Width: 346
Flags: HW
LayerCount: 2
Fore
SplineSet
197 810 m 0
 261 810 313 758 313 695 c 0
 313 632 261 580 197 580 c 0
 134 580 81 632 81 695 c 0
 81 758 133 810 197 810 c 0
197 759 m 0
 160 759 130 729 130 695 c 0
 130 661 160 632 197 632 c 0
 234 632 264 661 264 695 c 0
 264 729 234 759 197 759 c 0
EndSplineSet
EndChar

StartChar: estimated
Encoding: 8494 8494 357
Width: 809
Flags: HW
LayerCount: 2
Fore
SplineSet
740 312 m 1
 197 312 l 2
 194 312 192 311 192 308 c 2
 192 144 l 2
 192 136 196 130 200 125 c 0
 251 70 325 36 406 36 c 0
 492 36 570 75 621 135 c 1
 670 135 l 1
 610 65 512 18 405 18 c 0
 220 18 70 153 70 319 c 0
 70 486 220 621 405 621 c 0
 590 621 740 486 740 319 c 2
 740 312 l 1
618 333 m 2
 618 498 l 2
 618 506 614 513 609 518 c 0
 557 570 485 603 406 603 c 0
 325 603 253 569 201 515 c 0
 196 510 192 503 192 495 c 2
 192 333 l 2
 192 330 194 328 197 328 c 2
 613 328 l 2
 616 328 618 330 618 333 c 2
EndSplineSet
EndChar

StartChar: literSign
Encoding: 8467 8467 358
Width: 264
Flags: HW
LayerCount: 2
Fore
SplineSet
322 706 m 0
 388 706 432 662 432 580 c 0
 432 444 311 317 192 219 c 1
 177 128 194 84 252 84 c 0
 306 84 348 123 386 169 c 1
 426 121 l 1
 368 34 300 -4 226 -4 c 0
 131 -4 97 60 97 160 c 1
 46 125 l 1
 26 181 l 1
 107 240 l 1
 149 502 l 2
 175 643 243 706 322 706 c 0
320 636 m 0
 287 636 256 601 240 512 c 2
 207 317 l 1
 295 394 361 496 361 578 c 0
 361 616 344 636 320 636 c 0
EndSplineSet
EndChar

StartChar: paragraph
Encoding: 182 182 359
Width: 615
Flags: HW
LayerCount: 2
Fore
SplineSet
523 -109 m 1
 435 -109 l 1
 435 670 l 1
 304 670 l 1
 304 -109 l 1
 217 -109 l 1
 217 356 l 1
 186 356 l 2
 37 356 -1 471 -1 545 c 0
 -1 645 62 742 224 742 c 2
 523 742 l 1
 523 -109 l 1
EndSplineSet
EndChar

StartChar: registered
Encoding: 174 174 360
Width: 745
Flags: HW
LayerCount: 2
Fore
SplineSet
373 689 m 0
 563 689 711 536 711 350 c 0
 711 165 562 9 371 9 c 0
 181 9 34 163 34 348 c 0
 34 533 182 689 373 689 c 0
371 69 m 0
 531 69 654 197 654 350 c 0
 654 503 532 629 373 629 c 0
 213 629 91 501 91 348 c 0
 91 195 212 69 371 69 c 0
517 412 m 0
 517 359 492 321 446 303 c 1
 524 190 l 1
 458 190 l 1
 395 292 l 1
 380 292 l 1
 301 292 l 1
 301 190 l 1
 244 190 l 1
 244 528 l 1
 380 528 l 2
 468 528 517 486 517 412 c 0
301 340 m 1
 380 340 l 2
 432 340 463 366 463 411 c 0
 463 456 432 480 380 480 c 2
 301 480 l 1
 301 340 l 1
EndSplineSet
EndChar

StartChar: section
Encoding: 167 167 361
Width: 499
Flags: HW
LayerCount: 2
Fore
SplineSet
259 694 m 0x72
 324 694 388 677 448 641 c 1
 412 567 l 1
 358 598 305 613 260 613 c 0
 201 613 163 589 163 554 c 0
 163 441 468 492 468 306 c 0x6a
 468 248 420 195 360 177 c 1
 420 151 447 121 447 63 c 0
 447 -23 365 -85 242 -85 c 0xb4
 161 -85 81 -58 21 -9 c 1x72
 56 65 l 1
 113 20 178 -3 239 -3 c 0
 301 -3 344 25 344 60 c 0
 344 172 42 125 42 307 c 0xb4
 42 370 89 416 164 434 c 1
 88 465 63 497 63 550 c 0x6a
 63 634 140 694 259 694 c 0x72
242 376 m 0
 178 376 142 352 142 315 c 0
 142 268 198 235 269 235 c 0
 333 235 366 262 366 299 c 0
 366 345 314 376 242 376 c 0
EndSplineSet
EndChar

StartChar: trademark
Encoding: 8482 8482 362
Width: 886
Flags: HW
LayerCount: 2
Fore
SplineSet
325 626 m 1
 202 626 l 1
 202 280 l 1
 117 280 l 1
 117 626 l 1
 -5 626 l 1
 -5 700 l 1
 325 700 l 1
 325 626 l 1
834 280 m 1
 757 280 l 1
 757 577 l 1
 636 323 l 1
 580 323 l 1
 460 577 l 1
 460 280 l 1
 382 280 l 1
 382 700 l 1
 480 700 l 1
 608 433 l 1
 736 700 l 1
 834 700 l 1
 834 280 l 1
EndSplineSet
EndChar

StartChar: acute
Encoding: 180 180 363
Width: 350
Flags: HW
HStem: 606 154
VStem: 58 193
LayerCount: 2
Fore
SplineSet
261 716 m 5
 149 608 l 5
 77 608 l 5
 183 756 l 5
 261 716 l 5
EndSplineSet
EndChar

StartChar: breve
Encoding: 728 728 364
Width: 350
Flags: HW
LayerCount: 2
Fore
SplineSet
238 749 m 1x70
 316 749 l 1
 313 664 255 607 175 607 c 0
 95 607 37 664 34 749 c 1
 112 749 l 1x70
 114 711 140 684 175 684 c 0xb0
 210 684 236 711 238 749 c 1x70
EndSplineSet
EndChar

StartChar: caron
Encoding: 711 711 365
Width: 350
Flags: HW
LayerCount: 2
Fore
SplineSet
20 755 m 1
 102 755 l 1
 175 652 l 1
 248 755 l 1
 330 755 l 5
 222 605 l 5
 128 605 l 1
 20 755 l 1
EndSplineSet
EndChar

StartChar: cedilla
Encoding: 184 184 366
Width: 350
Flags: HW
HStem: -226 67<77.9518 181.373> -86 99<146.354 183.547>
VStem: 187 73<-153.566 -90.3525>
LayerCount: 2
Fore
SplineSet
231 11 m 1x70
 202 -50 l 1
 244 -58 272 -85 272 -129 c 0
 272 -187 225 -224 166 -224 c 0xb0
 133 -224 101 -213 78 -196 c 1x70
 100 -142 l 1
 117 -155 138 -162 158 -162 c 0xb0
 187 -162 204 -141 204 -121 c 0
 204 -102 189 -83 156 -83 c 0
 145 -83 132 -85 121 -88 c 1
 163 11 l 1
 231 11 l 1x70
EndSplineSet
EndChar

StartChar: circumflex
Encoding: 710 710 367
Width: 538
Flags: HW
LayerCount: 2
Fore
SplineSet
321 614 m 1
 247 614 l 1
 175 712 l 1
 103 614 l 1
 29 614 l 1
 132 755 l 1
 218 755 l 1
 321 614 l 1
EndSplineSet
EndChar

StartChar: dieresis
Encoding: 168 168 368
Width: 388
Flags: HW
HStem: 642 113<36.3983 125.402 213.398 302.402>
VStem: 24 113<654.498 743.502> 201 113<654.498 743.502>
LayerCount: 2
Fore
SplineSet
210 699 m 0
 210 729 234 753 264 753 c 0
 294 753 318 729 318 699 c 0
 318 669 294 645 264 645 c 0
 234 645 210 669 210 699 c 0
33 699 m 0
 33 729 57 753 87 753 c 0
 117 753 141 729 141 699 c 0
 141 669 117 645 87 645 c 0
 57 645 33 669 33 699 c 0
EndSplineSet
EndChar

StartChar: dotaccent
Encoding: 729 729 369
Width: 350
Flags: HW
HStem: 614 143<103.781 204.819>
VStem: 83 143<634.481 735.519>
LayerCount: 2
Fore
SplineSet
106 685 m 0
 106 723 137 754 175 754 c 0
 213 754 244 723 244 685 c 0
 244 647 213 616 175 616 c 0
 137 616 106 647 106 685 c 0
EndSplineSet
EndChar

StartChar: grave
Encoding: 96 96 370
Width: 350
Flags: HW
HStem: 606 154
VStem: 61 193
LayerCount: 2
Fore
SplineSet
81 717 m 1
 159 757 l 1
 265 609 l 1
 193 609 l 1
 81 717 l 1
EndSplineSet
EndChar

StartChar: hungarumlaut
Encoding: 733 733 371
Width: 350
Flags: HW
LayerCount: 2
Fore
SplineSet
173 719 m 1
 81 609 l 1
 12 609 l 1
 95 763 l 1
 173 719 l 1
338 719 m 1
 246 609 l 1
 177 609 l 5
 260 763 l 5
 338 719 l 1
EndSplineSet
EndChar

StartChar: macron
Encoding: 175 175 372
Width: 350
Flags: HW
LayerCount: 2
Fore
SplineSet
303 641 m 1
 48 641 l 1
 48 724 l 1
 303 724 l 1
 303 641 l 1
EndSplineSet
EndChar

StartChar: ogonek
Encoding: 731 731 373
Width: 350
Flags: HW
LayerCount: 2
Fore
SplineSet
149 12 m 1x60
 208 12 l 1x60
 168 -42 150 -80 150 -105 c 0
 150 -125 163 -137 181 -137 c 0
 198 -137 215 -124 230 -105 c 1
 263 -144 l 1
 240 -180 205 -201 168 -201 c 0
 129 -201 89 -178 89 -123 c 0xa0
 89 -83 111 -39 149 12 c 1x60
EndSplineSet
EndChar

StartChar: ring
Encoding: 730 730 374
Width: 350
Flags: HW
LayerCount: 2
Fore
SplineSet
175 801 m 0
 240 801 293 748 293 685 c 0
 293 621 240 569 175 569 c 0
 110 569 57 621 57 685 c 0
 57 748 110 801 175 801 c 0
175 749 m 0
 138 749 107 720 107 685 c 0
 107 650 138 621 175 621 c 0
 212 621 243 650 243 685 c 0
 243 720 212 749 175 749 c 0
EndSplineSet
EndChar

StartChar: tilde
Encoding: 732 732 375
Width: 350
Flags: HW
LayerCount: 2
Fore
SplineSet
106 758 m 0x38
 161 758 201 678 245 678 c 4x98
 280 678 283 720 283 752 c 1
 336 752 l 1x58
 336 665 305 621 245 621 c 0x98
 185 621 150 701 105 701 c 0
 71 701 68 659 68 627 c 1
 14 627 l 1
 14 714 46 758 106 758 c 0x38
EndSplineSet
EndChar

StartChar: commaaccent
Encoding: 806 806 376
Width: 0
GlyphClass: 4
Flags: HW
AnchorPoint: "Anchor-0" 103 0 mark 0
LayerCount: 2
Fore
SplineSet
109 -49 m 0
 141 -49 170 -73 170 -113 c 0
 170 -132 163 -149 152 -165 c 2
 95 -251 l 1
 36 -251 l 1
 74 -165 l 1
 56 -153 47 -134 47 -113 c 0
 47 -76 73 -49 109 -49 c 0
EndSplineSet
EndChar

StartChar: firsttonechinese
Encoding: 713 713 377
Width: 350
Flags: HW
LayerCount: 2
Fore
SplineSet
303 651 m 5
 48 651 l 5
 48 724 l 1
 303 724 l 1
 303 651 l 5
EndSplineSet
EndChar

